<svg xmlns="http://www.w3.org/2000/svg" width="42" height="38" viewBox="0 0 42 38"><path fill="#020302" d="M4 33.44h6.72V22H4zM11.61 15.9c0 2.16-1.7 3.9-3.8 3.9A3.85 3.85 0 0 1 4 15.9C4 13.75 5.7 12 7.81 12c2.1 0 3.8 1.75 3.8 3.9"/><path fill="#020302" d="M23.66 2.49c4.68 0 8.57 1.3 11.27 3.76 3.05 2.77 4.59 6.98 4.59 12.5 0 10.94-5.19 16.26-15.86 16.26H2.43V2.49zM24.12 0H0v37.5h24.12c5.27-.08 9.44-1.42 12.4-4 3.6-3.15 5.43-8.11 5.43-14.75 0-3.17-.48-6.02-1.43-8.46a15.37 15.37 0 0 0-3.98-5.91C33.49 1.6 29.2.09 24.12.01z"/><path fill="#cb1c67" d="M22.53 33.04H14V6h8.53-.35c7.11 0 14.68 2.88 14.68 13.56 0 11.29-7.57 13.48-14.68 13.48z"/><path fill="#fefefe" d="M14.28 14.1v4.3h.96c.36 0 .62-.02.78-.06.2-.05.38-.14.51-.27.14-.13.25-.33.34-.62.09-.3.13-.69.13-1.19 0-.51-.04-.89-.13-1.16a1.58 1.58 0 0 0-.36-.63 1.22 1.22 0 0 0-.6-.3 4.81 4.81 0 0 0-1.05-.07zM13 13h2.34c.53 0 .93.04 1.21.12.37.12.69.32.96.6.26.29.46.64.6 1.06.14.41.21.93.21 1.54 0 .53-.07.99-.2 1.38-.15.47-.38.86-.68 1.15-.22.22-.52.4-.9.52a3.8 3.8 0 0 1-1.13.14H13z"/><path fill="#fefefe" d="M15.51 13.36c.51 0 .9.04 1.16.11.34.11.64.29.88.55.25.27.44.6.57.99.13.4.2.9.2 1.48 0 .52-.06.96-.19 1.33a2.7 2.7 0 0 1-.63 1.08c-.21.2-.48.36-.84.48-.26.08-.62.13-1.08.13h-2.23v-6.15zM13 13v6.86h2.58c.49 0 .89-.05 1.19-.14.4-.13.73-.32.97-.56.31-.32.55-.73.72-1.22a5.21 5.21 0 0 0-.01-3.04 2.95 2.95 0 0 0-.65-1.12 2.24 2.24 0 0 0-1.03-.65c-.3-.09-.71-.13-1.26-.13z"/><path fill="#fefefe" d="M14.75 14.36c.63 0 .9.03 1.02.05.21.05.38.14.51.27.13.12.24.31.32.55.08.25.12.62.12 1.1 0 .48-.04.87-.12 1.14-.08.26-.18.44-.29.55a.96.96 0 0 1-.44.22c-.15.04-.4.06-.74.06h-.78v-3.94zM14 14v4.66h1.13c.38 0 .65-.02.82-.07.24-.06.43-.16.59-.31.17-.15.29-.38.39-.71.09-.31.14-.71.14-1.24 0-.52-.05-.92-.14-1.21-.1-.3-.24-.53-.41-.7a1.35 1.35 0 0 0-.68-.35 5.2 5.2 0 0 0-1.09-.07zM20 19.51V13h4.7v1.1h-3.42v1.44h3.18v1.11h-3.18v1.75h3.54v1.11z"/><path fill="#fefefe" d="M23.7 13.36v.74h-3.42v1.8h3.18v.75h-3.18v2.11h3.54v.75h-4.47v-6.15zM19 13v6.86h5.17V18.4h-3.54V17h3.18v-1.46h-3.18v-1.08h3.42V13zM29.01 16.93l-.88-2.41-.85 2.41zm2.36 2.58h-1.4l-.55-1.48h-2.54l-.52 1.48H25L27.47 13h1.36z"/><path fill="#fefefe" d="M28.97 13.36l2.4 6.15h-1.02l-.56-1.48h-2.77l-.53 1.48h-.98l2.33-6.15zM27.6 13L25 19.86h1.73l.53-1.47h2.29l.56 1.47h1.77L29.2 13z"/><path fill="#fefefe" d="M28.73 16.75H27.5l.61-1.72.62 1.72zM27 17.1h2.23L28.1 14zM33 19.45V13h1.28v5.35h3.19v1.1z"/><path fill="#fefefe" d="M33.28 13.36v5.35h3.19v.74h-4.12v-6.09zM32 13v6.81h4.82v-1.46h-3.19V13z"/></svg>