<svg xmlns="http://www.w3.org/2000/svg" width="57" height="38" viewBox="0 0 57 38"><path fill="#f26a21" d="M13.84 14.19c.3-.31.8-.41.9-.41-.2-.4-.7 0-1.2-.2 0 .2 0 .41.3.61zm-1.19-6.43c0 .41.29.61.59.61 0 .41.3.51.4.61.3.21.4.21.7 0 .3.21.4-.2.5 0 0 .62 0 .92-.1 1.43-.1.72-.7.62-1.2.92 0 .31-.3.82 0 1.13.3-.21.5-.31 1-.52 0-.3.3-.61.7-.81 0-.92.29-1.84.29-2.76 0-.2-.2-.41-.49-.61zm6.27 6.12l1.1.41v-.51h-1zM14.14 4.9c-.1-1.02-1.2-1.12-1.69-1.53h-.4c-.8.31-1 1.12-1.09 1.84.29.92.89.3 1.29.92.4-.31 1.39-1.03 1.89-1.23zm1.1 1.33c-.4.1-.7.41-.7.71h1.09c.1-.3.5-.71.7-.92-.2-.2-.8.11-1.09.21zm2.99 2.14c.19.82.19 1.74.19 2.66.4.1.8.3.8.91.4.21.8.31 1.2.62.19-.1.29-.41.39-.72-.39-.51-1.29-.2-1.29-1.12l-.6-.2c0-.62 0-1.23-.1-1.64l.1-.1c0 .1.1.2.3.41.4 0 .8.1 1.2-.21.19-.1.19-.61.39-.61s.4 0 .5-.2c0 0 .2 0 0-.1l-2.19-.31c-.2.31-.7.31-.7.61zm.59-1.43h.9c0-.3-.1-.3-.2-.3-.5 0-.5-.82-.9-.62-.2 0-.39-.2-.69 0 0 .11 0 .11.19.11.5 0 .3.71.7.81zm3.59-.3c.3-.31.49 0 .69-.31.2-.51.2-1.43-.2-1.94-.19-.41-.69-.61-1.19-1.02l-.7.41c-.4.2-.59.61-.59 1.12a4.05 4.05 0 0 1 1.69 1.74zm-4.59 26.44c-.29.51-.29 1.22-.29 1.74 0 .3.1 1.73.59 2.65h-1.19c-.1-.82-1-1.43-.7-2.45.2-.2.8-.2.9-.72-.1-.2-.2-.4-.3-.4l-.5.2c0-.2.1-.41.4-.82zm1.1.82c1 1.02.8.81.9.81 0 .82-.1 1.84-.1 2.76h-.8c-.3-.82-.5-1.94-.5-2.76 0-.2.3-.81.5-.81zm2.39.4c.4 0 .7.11.7.52 0 .51-.6 1.73-.9 2.65h-.69s.19-2.25.19-2.65c0-.21.5-.52.7-.52zm13.84-.71c-.1.31-.4.92-.4 1.43 0 .92.2 1.63.3 2.45h-.89c-.3-.61-.7-1.33-.7-2.25 0-.2.1-.71.3-.71.2.31.2.61.4.82.2-.21.4-.51.4-.82 0-.1 0-.61-.4-.82zm8.17-2.96c.2-.31.2-.72.49-1.23.11 0 .4.72.4.82 0 .61 0 .82-.29 1.33zm-1.1 1.22l.4-.71c.3.2.7.51.7 1.02 0 0-.1.31 0 .51 0 .1.2.1.2.31-.2.3-.2.3-.3.61 0-.51-.6-.82-1-1.74zm-.4-2.96c-.69 0-.29-1.43-1.79-1.43-.3 0-.5.52-.89.62 0-.1.09-.72.09-.72 0-.2.11-.61.5-.81.8 0 .6.3 1.2.51.3.1.5.3.89.3zm-1.29 1.13c-.5-.62-1.19-.11-1.69-.11-.2-.61.09-.61.09-1.02.3 0 .6-.2.9 0 .5-.2.8.31 1.3.31.1.2.3.71.4.82 0 .41-.1.51-.2 1.02-.7-.1-.7-.92-.8-1.02zm-1.6 2.04c0-.41-.29-.92-.49-.92-.6 0-.5.41-1 .41l.9-.92c.1-.2.1-.2.3-.2.29.2.4.3.7.3 0 .21 0 .31-.11.61.3.21.5-.1.7.21.3.1.6.2.6.61 0 .1-.2.31-.2.31-.5-.31-.8-.41-1.4-.41zm.3-15.11c0 .61.7.31 1.1.51.2.31.3.51.4.92-.7-.21-1.1-.51-1.69-.51-.2 0-1.1.3-1.2.51-.3-.41.2-1.23.6-1.43.4-.21.6-.1.79 0zm.11 1.94c.69 0 1.29.51 1.29 1.02-.6 0-.7-.1-1.1-.1-.49 0-1.09.2-1.39.71-.2-.41-.1-.61 0-.92.3-.3.79-.71 1.2-.71zm2.58 1.84c.5 0 .9.81 1 1.43a5.81 5.81 0 0 0-2.69-.82c-.4 0-1.59.51-1.99.92l-.2-.92c.6-.1.6-.61 1-.61.3 0 .69-.11.99-.11.3 0 .5-.2.6-.2.5 0 .3.51.6.51s.49-.2.69-.2zm-.59 5.41c0-.41-.2-.51-.7-.51-.4 0-.7.1-1.29.3 0 0-.3-.41-.41-.81.21-.11 1-.31 1.4-.31.7 0 1.39 0 1.39.31 0 .4.6.51.6 1.53-.3-.1-.99-.21-.99-.51zm-.1-2.86c-.2 0-.5.3-.5.3-.2.11-.8-.3-.8 0 0 .52-.4.72-.89.72-.2 0-.4 0-.6-.1v-1.02c1.29 0 1.19-.41 1.79-.41.4 0 .7.2 1 .2.49 0 .2-.2.69-.2.5 0 .7.41 1 .51 0 .3.3.71.3 1.12-.7 0-1.4-.2-1.5-.51-.19-.2 0-.61-.49-.61zm-5.68 1.84c0-.11-.1-.11.1-.21.1 0 .5 0 .5.1.1.21.3.51.3.82 0 .41-.2.72-.1 1.13-.2-.62-.6-1.23-.8-1.84zm-.9 2.24c-.09-.61-.29-1.12-.49-1.73-.2-.82-.7-1.53-1.1-2.45-.1-.41-.6-.62-1-.92.5 0 1 0 1.4.4 0 .21.1.31.4.62.7 0 .5.92 1.09 1.32-.3.31-.39.52-.59.72.29.2.59.31.69.61 0 .62-.1 1.33-.1 2.05-.3 0-.3-.21-.3-.62zm-1.29 1.53c-.2-.1-.6 0-.6-.2 0-.31.1-.71.1-.92 0-.41-.3-.61-.3-.81 0-.62.7-.72.9-1.13.1.41.1.82.1 1.33 0 .2.3.82 0 1.33 0 .3.6.1.6.4 0 .51-.6 1.13-.8 1.54.2-.52.2-1.54 0-1.54zm-1.3-3.37s-.49-.51-.59-1.02c-.1-.4.3-1.12.3-1.12.1 0 .19.2.29.2.11.11 0 .41.11.72.29.2.49.61.29.82 0 .2-.29.4-.4.4zm-1.19 2.46c0-.21.3-.21.1-.52 0 0-.6-.3-.6-.71s.4-.71.6-1.02c0-.1.4.2.4.82 0 .1 0 .41-.1.61-.1.3.6.3.6.61 0 .61-.4 1.12-.5 1.74 0-.62-.1-1.13-.5-1.53zm.3-5.11c0 .31-.2.41-.4.61 0 0-.4-.51-.4-.71 0-.41 0-.61.1-.92.3.31.7.71.7 1.02zm4.38-.61v.81c-.9-.51-1.39-1.42-2.19-2.34.8 0 1 .81 1.59.92.2.2.4.3.6.61zm-6.57-2.66c.29.31.7.41.89.51-.3.31-1.09.41-1.69-.1zm.2 13.17c-.2-.3-.3-.61-.5-.61.3-1.12-.3-2.04-.5-2.96v-.31c.3.51 1.09 1.02 1 1.54.09.91.09 1.73.09 2.34zm-2.49 0c-.1-.4-.2-.61-.6-.92l-.8-.1c.1.41.7.41.3 1.02.4.31.7.31.9.82.2.31 0 .71.1.92l-.6.31c0-.52.1-1.54-.6-1.74-.59.2-.69-.61-1.09-.92-.2 0-.2-.51-.5-.31-.5.31-1.09 0-1.59.31l.5-.82c.39-.3.79-.2 1.19-.3l.8-.1c.79 0 1.49.4 2.29.71.4.2.6.51.6 1.02.19.1.59.1.59.41-.1.2-.3.82-.4 1.22-.19-.61-.39-1.53-1.09-1.53zm-2.29 2.05c-.3-.31-.1-1.13-.6-1.23-.5 0-.9-.51-1.09-.61l.39-.21s.2-.1.4 0c.2.21.4.31.4.51.2.31.5 0 .7.31.1.31.2.71.1.92zm-2.39-5.31c.4 0 .7-.21.89-.21.4-.1.7-.1 1-.1v.1c1.1 0 2.39-.1 3.19.82l.09.82c-.39-.31-.99-.31-1.19-.82-.4-.1-.7-.1-1.19-.1-.4.1-.9.1-1.3.1-.1 0 0-.1-.2-.21-.59.21-1.19.21-1.79.82zm-.9-10.31c.2.61.3 1.22.4 1.73.1.41.7.61.9.92-.4.1-1.1.31-1.3-.2-.6-.92-.3-1.74 0-2.45zm-2.69 4.38l1.6.31c.29.21.89.92 1.19 1.23-.2.2-.79.4-1.19.4-.6-.51-1-1.12-1.6-1.94zm1.6 4.7c-.1 0-.8-.3-1-.51-.1-.31-.1-.61-.1-.61h.8l.49 1.12zm-1.9-10.72c0 .21-.19.61-.19 1.02-.21.1-.6.31-1 .1v-.3c-.1-.21-.1-.61-.1-.82l-.1-.1c-.3.1-.3.31-.3.51-.1.2-.3.41-.3.71-.4 0-.6-.1-.89-.3v-.92c0-.2 0-.2-.1-.2l-.5.51c-.4-.31-.5-1.13-.5-1.64 1.59-.92 3.58-.61 4.78-.1.2.1.4.1.6.2-.1.62-.3 1.54-.9 1.94 0-.4-.2-.61-.39-.91-.11 0 0 .3-.11.3zm-1.29 3.98c.3-.2.6-.41.99-.92 0 .72-.1 1.64-.79 1.94zm-1.1 6.23h1.5l.3.61c-.4.31-.7.31-1.2.21zm-.2-1.84c.2-.3.6-.81.7-1.12.5-.31.7-.31 1.1-.31-.1.62-.4.82-.9 1.54-.3.2-.9.3-1.49.61.1-.31.39-.41.59-.72zm0-5.2c0 .51.2.92.2 1.53-.59-.61-1.09-1.13-1.09-1.74.3 0 .6 0 .89.21zm-2.59 4.39c.3-.21.6-.31 1-.62l.8-.81h.79c-.29.61-.59 1.22-1.19 1.43-.3 0-.8.2-1.4 0zm-.99 3.57c-.3-.31-.6-.61-.7-.92-.29-.31-.59 0-.99-.31-.4 0-.9 0-1.3.31v-.31l.7-.81c.7.1 1.59 0 1.79.51.5.3 1 .61 1.1.82v.3c.19.1.6.21.79.31 0 .3-.1 1.53-.1 1.53-.19-.72-.69-1.43-1.29-1.43zm.2 3.78c-.2-.31 0-.82-.3-1.13 0-.2.2-.3.1-.4-.1-.21-1.29-.62-1.29-.62-.4-.3-.9-.61-1.3-1.02-.4-.1-.7.1-1.2.21v-.21c.2-.41.2-.92.8-.92.3 0 .7 0 .9.31.4 0 .6.41.9.51.49.51.89.71 1.19.92 0 .31.1.51.3.61.6 0 .4.61.6 1.02zm-1.1 1.83l-.69-1.83c-.8-.82-1.7-.92-2.2-1.33-.39-.1-.39.2-.59 0 0-.2 0-.51.3-.82h.59l.6.31c.3.31 1 .31 1 .92 0 .1-.1.2.2.61l.99.31.1.81zm-3.48.21s-.4-.41-.8-.41c-.3.2-.3.41-.4.72-.3.61-.89 1.22-.99 1.83-.1 0-.1-.1-.1-.1 0-1.02.1-2.75.69-3.47.5-.61.9-.61 1.5-.71l.5.1-.4.61c.4.2.99.61.99 1.22 0 .82-1.29 1.94-1.29 1.94 0-.51.3-1.12.3-1.73zm-3.69-.61c-.39.81-.49 1.12-.09 2.34-.3.31-.51.41-.9.62-.2-.41-.2-1.13-.2-1.53 0-.72.1-1.43.3-2.05.29-.3.5-.81.8-1.12h1.09c-.5 0-.5.51-.5.82.3.1.7.2.7.71 0 .41-.1.82-.3 1.13-.1-.41-.4-.92-.9-.92zm-2.09.61c-.3.61 0 1.02 0 1.73 0 .31-.1.62-.1.62-.2 0-.59-.41-.69-.82v-1.63l.89-1.13c.6.41.8 1.02.6 1.54-.1 0-.4-.31-.7-.31zm7.57-14.09c.3.1.5.1.9.2-.5.51-1 .72-1.2 1.33 0-.3-.1-.61-.2-.82.1-.4.4-.61.5-.71zm.4-11.44l-.5.62c.1 1.02-.3 1.73-.3 2.65l-.5-1.63c.1-.41.2-.82.5-1.33zm-.8-1.73c.2-.31.3-.61.6-.92v1.23l-.7.2zm3.89 16.13l-.4 1.53c-.5.41-1.2.21-1.79.21.79-.21 1.39-1.13 1.79-1.74.1-.1.2 0 .4 0zm-2.09.2c-.1.11-.4.31-.4.31 0-.61.3-1.12.3-1.63.3-.1.59-.31.79-.1 0 .4-.2.91-.69 1.42zm.2-3.98c-.2-.4-.3-.92-.3-1.22.39 0 .69.3.79.51v.1c.5.61 1 1.12 1.1 1.94-.6-.2-1.3-.82-1.59-1.33zm2.88-.3l-.3 1.32c-.3-.61-.6-1.22-.69-1.94zm4.98 1.94c.2-.51.5-.62.7-.82.1.71.2 1.23.5 1.84-.5-.31-1.4-.41-1.2-1.02zM11.35 2.86c.5-.1.8-.61 1.39-.31.41 0 .8.21 1.1.31 0 .2 0 .3.2.51.6 0 .6.61.9 1.12.3.1.59.1.79.1.6.21 1.1.21 1.3.51a3.6 3.6 0 0 1 2.49-.51c.1-.3.3-.71.4-1.22.1.31.1 0 .29 0 .4-.31.9-.82 1.6-.61.4.3 1.09.1 1.49.61.3.41.5 1.02.8 1.53-.3.61 0 1.43-.6 1.74l-.6.61c-.19 0-.19.2-.49.2.3.72.1 1.74-.2 2.45.2-.1.5-.1.5-.4.09.1 0 .3 0 .4v.31c0 .51-.3 1.02-.7 1.43-.2.61-.7 1.43-1.4 1.53v.21c1.5 0 2.69.4 4.09 1.12v.71a9 9 0 0 0-3.99-1.33c0 .31 0 .62-.1.72 1.2.61 2.29 1.12 3.29 2.04v.92c-1-1.02-2.09-2.04-3.39-2.35-.09.21-.49.41-.59.82a5.38 5.38 0 0 0-2.29-1.12c-.3 0-.5-1.13-.5-1.13.5-.2.8-.51.99-1.02h.4c.3 0 .3-.2.3-.51 0-.61-1.29-.61-1.89-.61-.7 0-1.2 0-1.6.3-.19 0-.09.31-.09.52 0 .1.29.3.29.3.2 0 .4-.2.6-.2-.1.61.1.92.7 1.22l-.1 1.02c-1.2 0-1.99.52-2.89.92-.3-.2-.5-.51-.69-.81-1.2.41-3.29 2.04-3.29 2.04v-.72c.9-.81 2.09-1.22 2.99-1.73v-.72c-.4-.2-.8 0-1.2 0-.89.1-1.79.51-2.39 1.02 0-.3-.1-.71-.1-.71 1.1-.61 2.49-1.12 3.78-.92v-.41c-.09-.2-.09-.51-.29-.51-.6-.61-1.2-1.53-1.2-2.14l.4-.21c-.2-.61-.4-2.14 0-2.65a3.41 3.41 0 0 1-1.39-1.23c-.2-.51-.4-.81-.5-1.43.3-.61.5-.81.8-1.43.2 0 .49-.1.59-.3zm13.35 8.78l-.8.2.5-2.24c.2.41.5.81.5 1.02 0 .1-.2 1.02-.2 1.02zm1.29 7.66c-.6 0-1.29.3-1.59-.31.2-.1.4-.41.6-.61zm.2-5.11c.4-.2.4.31.5.41.1.31.3.61.3.92-.6 0-.9-.31-1.2-.92 0-.31-.1-.72 0-1.22.2.4.2.61.4.81zm.9 3.58h-.9c-.1-.21-.2-.31-.2-.51.4-.11.7-.31 1-.11.19.31.4.62.69.62-.09.4-.5 0-.59 0zm-4.38 10.82c0-.31.19-.61.59-.82.6.21 1.1-1.12 1.7-.41.29.1.59.1.79.1.7.31.9.92 1.2 1.43-.5 0-.9 0-1.2-.51-.1 0-.3-.3-.4-.1-.49.41-.99-.3-1.59-.2a2 2 0 0 1-1.09.61zm2.19-6.74c.39.41.79 1.12 1.49 1.53-.4 0-1.1 0-1.49-.31-.6-.3-.8-.51-1.1-.81.4-.31.9-.31 1.1-.41zm-1.3 2.04c.3.1.8.41 1.1.61h-.3c-1.1.41-1.99-.3-2.89-.92.5-.2 1.2-.3 1.79-.3zm-1.39-3.98c-.2-.61-.2-1.23-.4-1.53.4.3 1.29.3 1.09 1.22 0 .31.4.51.7.92-.5.1-.89-.41-1.39-.61zm6.07 1.94c-1.1 0-1.59-.31-2.09-.72.4 0 .9-.51.9-.51.5.51 1.19.92 1.69 1.03zm15.83-14.6c.3 0 .7-.31 1.2-.31.2.51.6.82.7 1.23l.1.61c-.2-.41-.6-.61-.9-.61-.3-.41-.7-.92-1.1-.92zm-2.09-.61c-.2-.31-.49 0-.69 0-.2 0-.3 0-.7-.31.6 0 .9-.31 1.39-.51.4.31.8.41 1.1.82zm5.58 1.73a7.3 7.3 0 0 1-1.49-2.04c-.5-.51-.8-.82-1.4-1.12l.3.92h-.1c-.5 0-.99-.31-1.39-.62l.4-.41c-.11-.2-.4-.2-.6-.2-1.6-.31-3.09.61-4.68.92v.2c.99.31 1.19 1.54 1.79 2.15h.6c.2 0 .5.2.69.2 0-.2-.19-.61-.19-.61.19-.2.39-.2.59 0 .5.31 1.2-.2 1.69.61-.59 0-1.19 0-1.69.31 0 .1.3.3.2.51-.5-.21-1.09 0-1.29-.41l-.1.1c.6.72 1.49 1.33 2.39 1.64 1.29.2 2.39-.41 3.68-.11 4.58 2.25 7.77 7.56 7.77 12.87 0 7.55-4.18 10.62-6.87 10.62-.5 0-1.3-.31-1.6-.62.3-1.12.5-2.34.5-4.18 0-4.39-1.69-9.09-3.98-11.54-1.1-1.12-2.29-2.04-3.59-2.04-.59 0-1.19 0-1.59.51-.49.41-.8 1.23-.7 1.74-.79.61-2.09.91-3.08.91-1.1 0-2.49-.4-3.79-1.42v-1.54c-.29-.1-1.29-.71-.8-1.22.3.1.51.3.6.41-.09-.72-.09-1.53-.6-2.15-.19 0-.49 0-.79-.2-.3-.31-.6-.72-.6-1.23.3.51.8.31 1.1.61-.5-1.22-.3-1.73-1.2-3.57-.19-.92-1.09-1.43-1.69-2.04-.3-.2-.4-.51-.8-.51-.39-.1-.39-.61-.39-.92.1 0 .39.2.59.31-.59-1.43-.99-2.96-2.29-3.78l-.3.2h-1.59c.2-.2.6-.3.9-.51-.3-.3-.5-.41-1.1-.41-.3.11-.69.41-1.09.41h-.1c0-.3-.1-.71.5-.92-.6-.1-1.1-.1-1.8 0-.1.51-.39.82-.39 1.23-.3.2-.41.51-.7.82 0-.62.29-1.23.4-1.84-.4.1-.9.41-1.1.41A7.32 7.32 0 0 0 14.64 0c.6.41.3 1.12.4 1.63l-.4-.2c-.1-.41-.6-.72-.7-1.23-.6 0-1 .21-1.49.51v.11c.29 0 .7.3.89.61-.69 0-1.19-.31-1.89-.31 0 0 0-.1-.1-.1-.3.1-.59.41-.79.61a4.4 4.4 0 0 0-1.5 2.05c.2 0 .5 0 .6.1-.4.1-.6.61-1 .71v1.53c-.3.31-.69.62-.89 1.23-.5 1.63-.6 3.47-.6 5.51-.1.41-.3.51-.5.62v1.63s.6-.61.9-.82v1.33c-.4 0-.7.51-.7.82 0 .4.1.81.1 1.22 0 .21 0 .21.1.41 0-.2.2-.41.5-.51 0 0 .2-.2.59-.2-.29.3-.39.71-.59 1.12l-.3.3s-.1.21-.1.31a32 32 0 0 0 1.79 6.02c-.8 1.33-1.69 3.88-2.29 6.33-.5-.51-1.19-.61-1.79-.61-.6.1-1.19.31-1.6.92-.59-.31-1.39-.2-1.79.2-.89.82-.89 1.23-.89 1.84-.2.21-.6.72-.6 1.43 0 .92.1 1.53.6 2.35h15.13c-.1-.31-.3-.71-.49-.92-.3-.61-.1-1.43-.1-2.04.29-.61.59-1.23.99-1.74.1-.3 0-.3.1-.4l.7-.21c.4 0 .7-.31 1.19-.31.3.52.3-.3.8-.51 1.1-.2 2.19 0 2.79.82 0 .21.1.21.1.31h-.5c-.6-.31-1.29-.62-1.99-.31 0 .31-.1.31-.1.61v.51c.4 0 .7.41 1.09.62.2-.31.8-.62 1.2-.62.5 0 1.2.31 1.2 1.13v1.12c.39.41.89.51 1.39.71-.2.41-.5.41-.8.41h-.79c-.1-.1-.3-.1-.3-.41-.3.41-.5.82-.7 1.23h11.65c-.2-.41-.4-.71-.5-.92-.2-.61-.2-1.43-.2-2.04l1.1-1.53c.6 0 1.09-.21 2.19-.31.2-.3 0-.51.9-.51.69 0 1.19.21 1.39.31.1.2.1.2 0 .41-.2.2-.6-.21-.89-.11-.21.21.09.31.09.51.2.21-.89-.2-.89-.2s-.2.61-.3.82l.6.61c.19.31-.3.61-.3.92-.2-.1-.6-.41-.6-.31-.2.82 0 1.53-.1 2.35h1.1l.09-1.74c.1-1.02 1.3-2.85 2-2.85.39 0 .69.2.99.4.2.41.7.62.7.82 0 .2-.3.31-.8.31-.2 0-.2-.31-.5-.51l-.59.61s.7.61.7 1.02c0 .51-.11.71-.41 1.02l-.59-1.22c-.3 0-.8.61-.8.91 0 .41-.2.62-.2 1.23h6.18c.69 0 1.29-.2 1.99-.61h1.19c2.49 0 4.48-.72 6.28-2.56 2.39-2.45 3.78-6.32 3.78-10.1 0-4.49-1.79-8.99-4.98-12.26-1.39-1.42-2.99-2.14-4.18-3.57z"/></svg>