<?xml version="1.0" encoding="utf-8"?>
<!-- Generator: Adobe Illustrator 18.1.1, SVG Export Plug-In . SVG Version: 6.00 Build 0)  -->
<svg version="1.1" id="Laag_2" xmlns="http://www.w3.org/2000/svg" xmlns:xlink="http://www.w3.org/1999/xlink" x="0px" y="0px"
	 viewBox="0 0 879.9 206.6" enable-background="new 0 0 879.9 206.6" xml:space="preserve">
<g>
	<g>
		<path fill="#203C6F" d="M107,106.4c4.8-1,10-2.4,15.2-4.3c2.1-16.7,10-32.1,22.4-43.6c2.4-2.2,4.9-4.2,7.5-6.1
			c3.9-9,12.4-15.2,22.3-15.2c3.7,0,7.2,0.9,10.3,2.4c3-0.4,6.1-0.6,9.2-0.6c5.7,0,11.3,0.7,16.6,1.9c2.7-1.2,5.7-1.9,8.9-1.9
			c10.6,0,19.5,7.7,22.3,18.2c2.5,2.2,4.9,4.7,7.1,7.2c6.5-2.2,14-5.5,20.2-8.3c-17.2-22.9-44.5-37.7-75.4-37.7
			c-47.4,0-86.7,35.1-93.2,80.7C103,101,105.2,103.5,107,106.4z"/>
		<path fill="#203C6F" d="M859.2,80.1h-14.6c-9.4,0-17.4,6.2-20,14.8c-1.6-0.2-3.2-0.3-4.8-0.3c-4,0-7.6,0.4-10.8,1.2
			c-1.4-0.3-2.7-0.4-4.1-0.4h-13.4c-6.5,0-12.3,3-16.1,7.7c-3.8-4.7-9.6-7.7-16.1-7.7h-24.6c-9.1,0-16.6,1.7-22.8,5.2
			c-5.5-3.9-12.3-6-20-6c-4,0-7.6,0.4-10.8,1.2c-1.4-0.3-2.7-0.4-4.1-0.4h-4.6c-2.4-8.8-10.5-15.3-20.1-15.3h-15.3
			c-1.9,0-3.9,0.3-5.7,0.8c-1.8-0.5-3.8-0.8-5.7-0.8h-14.6c-2,0-3.9,0.3-5.8,0.8c-1.9-0.5-3.8-0.8-5.8-0.8h-15.3
			c-9.7,0-17.8,6.6-20.2,15.5c-3.1-0.6-6.4-1-9.9-1c-2.1,0-4.1,0.1-6.1,0.3c-0.7-1.7-1.7-3.3-2.9-4.7c-3.8-4.6-9.5-7.2-15.6-7.2
			h-16.9c-3.3,0-6.5,0.8-9.3,2.2c-2.8-1.5-6-2.2-9.3-2.2h-16.9c-6.1,0-11.7,2.6-15.6,7.2c-1.3,1.6-2.4,3.3-3.1,5.2
			c-2.8-0.5-5.8-0.8-8.9-0.8c-3.8,0-7.4,0.4-10.8,1.1c-2.3-9-10.5-15.6-20.2-15.6h-15.3c-1.9,0-3.8,0.3-5.7,0.8
			c-1.8-0.5-3.8-0.8-5.7-0.8h-15.3c-1.9,0-3.9,0.3-5.7,0.8c-1.8-0.5-3.8-0.8-5.7-0.8h-14.6c-5.2,0-10.1,1.9-13.8,5.2
			c-1.5-0.5-3.1-1-4.8-1.4c-2.7,1.7-6,3.1-9.6,3.8c-0.5,0.1-1,0.2-1.7,0.3c-1.5,0.2-3,0.3-4.5,0.3c-3.9,0-7.6-0.8-10.8-2.2
			c-1.4-0.6-2.6-1.4-3.7-2.2c-1-0.2-2-0.5-2.9-1c-1.5,0.1-2.8,0.3-4,0.5l0,0l-0.1,0c-0.9,0.1-2.4,0.4-4.3,1l-5.4,3.5c0,0,0,0,0-0.1
			l-0.9,0.6l-18.8,12.1c0.5,3.5,0.8,7.1,0.8,10.7c0,39.9-32.4,72.3-72.3,72.3c-29.2,0-55.3-17.5-66.5-44c-5.3,1.4-10.7,2.4-16.3,2.9
			c-0.9,2.9-2.2,5.6-3.7,8c14.6,33.1,47.7,56.3,86.2,56.3c33.8,0,63.4-17.8,80-44.5c0.1-0.1,0.1-0.1,0.2-0.2c0,0.1,0,0.2,0.1,0.3
			c0.7,3.3,2.2,6.8,5,10.1c1.7,2,3.5,3.5,5.3,4.6c3.6,2.3,7.4,3.2,10.2,3.8c6.9,1.3,18.5,1.3,19.7,1.3c6.5,0,16-0.5,24.8-4.4
			c3.4,2.3,7.4,3.6,11.7,3.6h14.6c2,0,4-0.3,5.9-0.9c1.8,0.5,3.6,0.8,5.5,0.9c1.8,8,8.4,14.4,16.9,15.9c3.3,0.6,7.3,1.2,11.9,1.2
			c9.6,0,17.5-2.9,23.6-8.6c2.8-2.7,5-5.8,6.7-9.4c4.1,1.2,8.5,1.8,13.1,1.8c5.5,0,16.2-0.6,25.7-4.5c1.5-0.6,2.9-1.4,4.2-2.2
			c1.2,0.9,2.5,1.7,3.9,2.4c5.6,2.9,12.2,4.3,20.8,4.3c8.6,0,15.2-1.4,20.8-4.3c1.6-0.8,3.1-1.8,4.5-2.9c6.8,4.8,15.2,7.3,24.6,7.3
			c4.8,0,13.5-0.4,21.9-3.1c2.9,1.5,6.1,2.3,9.5,2.3h14.5c2,0,4-0.3,5.9-0.9c1.9,0.6,3.9,0.9,6,0.9h14.6c2,0,4-0.3,5.9-0.9
			c1.9,0.6,3.9,0.9,6,0.9h14.5c2,0,4-0.3,5.9-0.9c1.9,0.6,3.9,0.9,6,0.9h14.6c2,0,4-0.3,6-0.9c1.9,0.6,4,0.9,6,0.9h8.2
			c2.5,4.2,6,7.8,10.4,10.6c6.7,4.1,15.5,6.2,26.1,6.2c11.4,0,19.9-1.7,26.7-5.2c5.3-2.8,9.4-6.7,12.2-11.5h6.7
			c1.8,0,3.7-0.2,5.4-0.7c1.8,0.5,3.6,0.7,5.4,0.7h14.6c2,0,4.1-0.3,6-0.9c1.9,0.6,4,0.9,6,0.9H833c2,0,3.9-0.3,5.8-0.8
			c1.9,0.6,3.9,0.8,5.9,0.8h14.6c11.4,0,20.7-9.3,20.7-20.8v-59.7C879.9,89.3,870.6,80.1,859.2,80.1z"/>
	</g>
	<g>
		<linearGradient id="SVGID_1_" gradientUnits="userSpaceOnUse" x1="86.1046" y1="134.9826" x2="131.9159" y2="117.7204">
			<stop  offset="0.3552" style="stop-color:#E75F2F"/>
			<stop  offset="0.4341" style="stop-color:#E8632E"/>
			<stop  offset="0.548" style="stop-color:#EA712D"/>
			<stop  offset="0.6831" style="stop-color:#EF8728"/>
			<stop  offset="0.8345" style="stop-color:#F6A71C"/>
			<stop  offset="0.9952" style="stop-color:#FFCF00"/>
		</linearGradient>
		<path fill="url(#SVGID_1_)" d="M127.9,106.5c-6.2,2.5-12.5,4.3-18.3,5.6c2.2,5.2,3.4,11,3.4,17.1c0,2.4-0.2,4.7-0.6,7
			c6.8-0.8,13-2.2,18.6-4.1c-2.2-6.5-3.3-13.5-3.3-20.8C127.7,109.7,127.8,108.1,127.9,106.5z"/>
		<linearGradient id="SVGID_2_" gradientUnits="userSpaceOnUse" x1="140.2538" y1="139.1961" x2="249.1494" y2="82.5792">
			<stop  offset="0.3552" style="stop-color:#E75F2F"/>
			<stop  offset="0.4341" style="stop-color:#E8632E"/>
			<stop  offset="0.548" style="stop-color:#EA712D"/>
			<stop  offset="0.6831" style="stop-color:#EF8728"/>
			<stop  offset="0.8345" style="stop-color:#F6A71C"/>
			<stop  offset="0.9952" style="stop-color:#FFCF00"/>
		</linearGradient>
		<path fill="url(#SVGID_2_)" d="M193.9,45.1c-34.9,0-63.5,27.1-66,61.4c-0.1,1.6-0.2,3.2-0.2,4.8c0,7.3,1.2,14.2,3.3,20.8
			c8.7,26.4,33.6,45.4,62.9,45.4c36.6,0,66.2-29.6,66.2-66.2C260.1,74.7,230.5,45.1,193.9,45.1z"/>
	</g>
	<g>
		<g>
			<g>
				<g>
					<defs>
						<path id="XMLID_21_" d="M260.1,111.3c0,36.6-29.6,66.2-66.2,66.2c-36.6,0-66.2-29.6-66.2-66.2c0-36.6,29.6-66.2,66.2-66.2
							C230.5,45.1,260.1,74.7,260.1,111.3z"/>
					</defs>
					<clipPath id="XMLID_2_">
						<use xlink:href="#XMLID_21_"  overflow="visible"/>
					</clipPath>
					<g clip-path="url(#XMLID_2_)">
						<g id="XMLID_22_">
							<g id="XMLID_23_">
								<defs>
									<path id="XMLID_24_" d="M159.6,115.4c-1.5,0-2.5,1.7-2,3.2c2.9,7.9,12.7,27.9,37,27.9c24.3,0,34.3-20.1,37.3-28.1
										c0.6-1.5-0.5-3.2-2-3.2L159.6,115.4z"/>
								</defs>
								<clipPath id="XMLID_3_">
									<use xlink:href="#XMLID_24_"  overflow="visible"/>
								</clipPath>
							</g>
						</g>
					</g>
				</g>
			</g>
		</g>
	</g>
	<g>
		<path fill="#1C9548" d="M225.7,151.8c-0.9,2.9-2.6,5.6-4.9,8.1C223.2,157.6,225,154.8,225.7,151.8z"/>
		<path fill="#F4A28C" d="M190.8,148.4c1.4,2.8,2.7,5.7,4,9.2c-3.1-3.8-6.1-9-9.2-10c-2.4-1.3-7.2-0.5-11.6,1.2
			c-1.4,0.6-2.8,1.2-4,1.9c2.4,2.7,5,5.4,8.2,8.2c0.1,0.1,0.2,0.2,0.3,0.2c1.5,1.4,3,2.6,4.5,3.6c4.6,2.8,10.5,4.6,17.1,4.6
			c3.8,0,7.4-0.6,10.7-1.6C211.2,144.7,195.5,143.5,190.8,148.4z"/>
	</g>
	<g>
		<g>
			<path fill="#FFFFFF" d="M240.8,76.3c0.4-17.5-9.6-31.8-22.4-31.9c-12.8-0.2-23.5,13.9-24,31.3c-0.4,17.5,9.6,31.8,22.4,31.9
				C229.6,107.8,240.3,93.7,240.8,76.3z"/>
			<path fill="#203C6F" d="M240.6,76.3c0,0,0-0.7,0-1.9c0-0.6,0-1.4-0.1-2.3c-0.1-0.9-0.2-2-0.4-3.1c-0.1-0.6-0.2-1.2-0.3-1.8
				c-0.2-0.6-0.4-1.3-0.5-2c-0.1-0.3-0.2-0.7-0.3-1c-0.1-0.3-0.3-0.7-0.4-1.1c-0.1-0.4-0.3-0.7-0.4-1.1c-0.1-0.4-0.3-0.7-0.5-1.1
				c-1.3-3-3.2-6.2-5.9-9c-0.3-0.3-0.7-0.7-1-1.1c-0.4-0.4-0.8-0.6-1.2-1c-0.7-0.7-1.6-1.2-2.5-1.8c-0.4-0.3-0.9-0.5-1.4-0.7
				c-0.5-0.2-0.9-0.5-1.5-0.7c-0.5-0.2-1-0.4-1.5-0.6c-0.5-0.1-1.1-0.2-1.6-0.4c-0.5-0.2-1.1-0.2-1.6-0.2l-0.8-0.1l-0.2,0l-0.1,0
				c-0.1,0,0,0,0,0l-0.1,0l-0.4,0c-0.6,0-1.2,0-1.8,0.1c-0.6,0.1-1.1,0.2-1.7,0.3c-2.3,0.5-4.5,1.4-6.6,2.8c-2,1.4-4,3.1-5.6,5.1
				c-0.4,0.5-0.8,1-1.2,1.6l-0.6,0.8l-0.5,0.8c-0.3,0.6-0.7,1.1-1,1.7l-0.8,1.8C196,65,195,70.4,195,75.7l0.1,2c0,0.7,0,1.4,0.1,2
				l0.2,2c0.1,0.7,0.2,1.3,0.3,2c0.2,1.3,0.6,2.6,0.9,3.8c0.2,0.6,0.4,1.2,0.6,1.9c0.2,0.6,0.4,1.2,0.7,1.8c0.3,0.6,0.5,1.2,0.8,1.8
				c0.3,0.6,0.6,1.1,0.9,1.7c0.2,0.3,0.3,0.6,0.5,0.8l0.5,0.8c0.4,0.5,0.7,1.1,1.1,1.6c1.5,2,3.3,3.8,5.2,5.2c3.9,2.8,8.6,4,13,3.2
				c0.5-0.1,1-0.2,1.5-0.3c0.5-0.2,1-0.3,1.5-0.5c0.5-0.1,1-0.4,1.5-0.6c0.5-0.2,1-0.4,1.4-0.7c0.4-0.3,0.9-0.5,1.3-0.8
				c0.4-0.3,0.8-0.6,1.2-0.9c0.8-0.6,1.5-1.3,2.3-2c2.8-2.7,4.9-5.8,6.3-8.8c0.4-0.7,0.6-1.5,1-2.2c0.1-0.4,0.3-0.7,0.4-1
				c0.1-0.3,0.2-0.7,0.3-1c0.2-0.7,0.5-1.3,0.6-1.9c0.1-0.6,0.3-1.2,0.4-1.8c0.3-1.1,0.4-2.2,0.6-3.1c0.2-0.9,0.2-1.7,0.2-2.3
				C240.6,76.9,240.6,76.3,240.6,76.3z M240.9,76.3c0,0,0,0.7-0.1,1.9c0,0.6-0.1,1.4-0.2,2.3c-0.1,0.9-0.2,2-0.5,3.1
				c-0.1,0.6-0.2,1.2-0.4,1.8c-0.1,0.6-0.3,1.3-0.5,2c-0.1,0.3-0.2,0.7-0.3,1.1c-0.1,0.4-0.2,0.7-0.4,1.1c-0.3,0.7-0.5,1.5-0.8,2.3
				c-1.2,3.1-3,6.5-5.9,9.6c-2.8,3.1-6.7,5.9-11.7,6.8l-0.9,0.2c-0.3,0-0.6,0-0.9,0.1l-0.9,0.1l-0.4,0l-0.1,0l-0.1,0
				c-0.1,0,0,0-0.1,0l-0.2,0c-0.6-0.1-1.3-0.1-1.9-0.2c-0.6,0-1.3-0.3-1.9-0.4c-2.5-0.6-5-1.7-7.1-3.4c-2.1-1.6-4-3.6-5.6-5.8
				c-0.4-0.5-0.7-1.1-1.1-1.7l-0.5-0.9c-0.2-0.3-0.3-0.6-0.5-0.9c-0.3-0.6-0.6-1.2-0.9-1.8c-0.3-0.6-0.5-1.3-0.8-1.9
				c-0.3-0.6-0.5-1.3-0.7-1.9c-0.2-0.7-0.4-1.3-0.6-2c-0.3-1.3-0.6-2.7-0.8-4c-0.1-0.7-0.2-1.4-0.3-2l-0.1-2.1c-0.1-0.7,0-1.4,0-2
				l0-2c0.2-2.8,0.5-5.5,1.2-8.1c0.6-2.7,1.5-5.2,2.6-7.7c1.1-2.5,2.5-4.7,4-6.9c1.6-2.1,3.5-4,5.5-5.6c2.1-1.6,4.4-2.7,6.9-3.3
				c0.6-0.1,1.3-0.3,1.9-0.4c0.6,0,1.2-0.1,1.8-0.1l0.4,0l0.1,0c0,0,0.2,0,0.1,0l0.1,0l0.2,0l0.9,0.1c0.6,0.1,1.2,0.1,1.8,0.2
				c0.6,0.1,1.2,0.3,1.8,0.4c0.6,0.2,1.1,0.4,1.7,0.6c0.6,0.2,1.1,0.5,1.6,0.7c0.5,0.3,1,0.5,1.5,0.8c0.9,0.7,1.9,1.3,2.7,2
				c0.4,0.4,0.8,0.7,1.2,1.1c0.4,0.4,0.7,0.8,1.1,1.2c2.8,3.2,4.4,6.7,5.5,9.8c0.2,0.4,0.3,0.8,0.4,1.2c0.1,0.4,0.2,0.8,0.3,1.1
				c0.1,0.4,0.2,0.7,0.3,1.1c0.1,0.4,0.1,0.7,0.2,1.1c0.1,0.7,0.3,1.4,0.4,2c0.1,0.7,0.2,1.3,0.3,1.9c0.2,1.2,0.2,2.2,0.3,3.2
				c0.1,0.9,0.1,1.7,0.1,2.3C240.9,75.6,240.9,76.3,240.9,76.3z"/>
		</g>
	</g>
	<g>
		<g>
			<g>
				
					<ellipse transform="matrix(0.9949 -0.1011 0.1011 0.9949 -6.9246 18.1685)" fill="#FFFFFF" cx="175.8" cy="77.4" rx="23.9" ry="34.8"/>
				<path fill="#203C6F" d="M199.7,75c0,0,0.1,0.7,0.2,2.1c0.1,1.4,0.2,3.4,0.1,5.9c0,1.3-0.2,2.7-0.3,4.2c-0.2,1.5-0.5,3.2-0.9,4.9
					c-0.4,1.7-1,3.6-1.7,5.5c-0.7,1.9-1.7,3.8-2.9,5.7c-1.2,1.9-2.7,3.7-4.6,5.3c-1.9,1.6-4.1,2.9-6.7,3.7c-1.3,0.4-2.6,0.6-4,0.7
					c-0.3,0-0.6,0-1,0l-1,0c-0.7-0.1-1.4-0.1-2-0.3c-2.7-0.5-5.3-1.6-7.6-3.2c-4.6-3.2-8.2-7.8-10.8-12.9
					c-2.6-5.2-4.3-10.8-5.1-16.7c-0.2-1.4-0.3-2.9-0.4-4.4c-0.1-1.5,0-2.9,0-4.4c0.2-2.9,0.6-5.9,1.3-8.7c1.5-5.7,4.1-11,8.2-15.1
					c2-2,4.5-3.6,7.1-4.6c1.3-0.5,2.7-0.8,4-1c0.2,0,0.3,0,0.5-0.1l0.5,0c0.3,0,0.6-0.1,1,0l1,0l1,0.1c2.7,0.3,5.1,1.1,7.3,2.3
					c2.2,1.2,4,2.7,5.6,4.3c1.6,1.6,2.9,3.3,4,5c1.1,1.7,2,3.4,2.7,5c0.7,1.6,1.3,3.2,1.8,4.7c0.5,1.5,0.9,2.8,1.2,4.1
					c0.6,2.5,0.9,4.5,1.1,5.8C199.6,74.2,199.7,75,199.7,75z M199.5,75c0,0-0.1-0.7-0.3-2.1c-0.2-1.3-0.5-3.3-1.3-5.7
					c-0.7-2.4-1.8-5.3-3.5-8.4c-1.7-3.1-4-6.3-7.1-9.2c-0.8-0.7-1.6-1.4-2.5-2c-0.4-0.3-0.9-0.6-1.4-0.9c-0.5-0.3-0.9-0.6-1.5-0.8
					c-2-1-4.2-1.7-6.5-2l-0.9-0.1l-0.8,0c-0.3,0-0.6,0-0.9,0l-0.5,0L172,44c-1.2,0.1-2.4,0.4-3.5,0.9c-2.3,0.8-4.4,2.3-6.3,4
					c-3.8,3.6-6.4,8.6-7.9,13.9c-1.6,5.4-2.1,11.1-1.7,16.9c0.2,2.8,0.7,5.7,1.4,8.5c0.8,2.8,1.7,5.5,3,8c2.5,5.1,6.3,9.5,10.9,12.2
					c2.3,1.3,4.8,2.3,7.2,2.6c0.6,0.1,1.2,0.1,1.9,0.1l0.9,0c0.3,0,0.6-0.1,0.9-0.1c1.2-0.1,2.4-0.3,3.5-0.7c2.2-0.7,4.3-1.9,6-3.3
					c0.4-0.3,0.8-0.7,1.3-1.1c0.4-0.4,0.8-0.8,1.1-1.2c0.7-0.8,1.4-1.6,2-2.5c2.5-3.4,4.1-7.1,5.1-10.4c1-3.4,1.5-6.4,1.7-8.9
					c0.2-2.5,0.1-4.5,0.1-5.9C199.5,75.7,199.5,75,199.5,75z"/>
			</g>
		</g>
	</g>
	<g>
		
			<ellipse transform="matrix(0.9994 3.391563e-02 -3.391563e-02 0.9994 2.7249 -5.9703)" fill="#203C6F" cx="177.3" cy="77.3" rx="6.7" ry="9.2"/>
		
			<ellipse transform="matrix(0.9994 3.389037e-02 -3.389037e-02 0.9994 2.5971 -5.9255)" fill="#FFFFFF" cx="176.1" cy="73.6" rx="2.6" ry="3.6"/>
	</g>
	<g>
		
			<ellipse transform="matrix(0.9967 -8.108887e-02 8.108887e-02 0.9967 -5.5087 18.0778)" fill="#203C6F" cx="219.8" cy="76.9" rx="6.7" ry="9.2"/>
		
			<ellipse transform="matrix(0.9967 -8.110236e-02 8.110236e-02 0.9967 -5.2295 17.9337)" fill="#FFFFFF" cx="218.1" cy="73.3" rx="2.6" ry="3.6"/>
	</g>
	<g>
		<path fill="#203C6F" d="M89.6,13.6c-2.9,0.6-4.8,3.5-4.1,6.4l0.3,1.2c-5.5-1.6-12.2-1.1-19.5,0.5l-37.5,8.1
			c-7.1,1.5-13.5,3.8-17.8,7.4l-0.3-1.2c-0.6-2.9-3.5-4.8-6.4-4.1c-2.9,0.6-4.8,3.5-4.1,6.4l9,40.9c0.6,2.9,3.5,4.8,6.4,4.1
			c2.9-0.6,4.8-3.5,4.1-6.4l-0.3-1.4c5.4,1.4,12,0.9,19.1-0.6l5.9-1.3c-1.6,1.1-2.4,3.1-2,5c0.5,2.5,3.2,4.3,5.7,3.7l2.4-0.5
			l18,83.8c0.9,4.9,5.7,8.1,10.8,7c5-0.9,8.1-5.7,7-10.8l-18-83.8l2.7-0.6c2.5-0.5,4.3-3.2,3.7-5.7c-0.4-1.9-2-3.4-3.9-3.7l5.1-1.1
			c7.2-1.6,13.6-3.9,18-7.5l0.3,1.5c0.6,2.9,3.5,4.8,6.4,4.1c2.9-0.6,4.8-3.5,4.1-6.4L96,17.7C95.4,14.8,92.5,12.9,89.6,13.6z"/>
	</g>
	<path opacity="0.1" fill="#FFFFFF" d="M79.3,172.5c5-0.9,8.1-5.7,7-10.8l-18-83.8l-8.9,1.9L79.3,172.5z"/>
	<path opacity="0.1" fill="#FFFFFF" d="M4.3,31.7c2.9-0.6,5.8,1.2,6.4,4.1l9,40.9c0.6,2.9-1.2,5.8-4.1,6.4"/>
	<path fill="#FFFFFF" d="M98.3,106.1c-0.3-3.6-1.7-6.8-4.4-9.1c-4.7-4.1-12.1-4.1-18.3,0.1c-0.8,0.5-1.5,1.1-2.3,1.7
		c-4.9-3.7-12.2-5.2-19.6-3.4c-3,0.7-5.8,2-8.3,3.6c-6.8,4.6-10.2,11.7-8.6,18.3c1,4.2,4,7.6,8,9.7c-1.7,3.6-2,7.7-0.6,11.9
		c1.2,3.5,3,5.8,5.6,7c0.6,0.3,1.3,0.5,2,0.7c0,1.4,0.1,2.9,0.6,4.3c2.5,7.6,12.1,11.4,21.3,8.3c1.8-0.6,3.5-1.4,5-2.4
		c1.7-1.1,3.1-2.4,4.3-3.9c1.7-0.2,3.4-0.8,5-1.9c1.1-0.8,2.2-1.7,3.1-2.8c1.3,0.6,2.6,1,4,1c2.2,0.1,4.3-0.6,6.3-1.9
		c5.1-3.4,8.6-10.9,8.9-19.3C110.9,116.9,105.6,107.5,98.3,106.1z M108.9,128.1c-0.3,7.8-3.5,14.9-8.2,18c-1.7,1.1-3.5,1.7-5.4,1.6
		c-1.1,0-2.1-0.3-3.1-0.7c3.2-4.3,5.2-10.5,5.4-17.2c0.2-4.8-0.6-9.3-2-13.1c1.6-2.9,2.5-5.9,2.6-8.9
		C104.7,109.2,109.3,117.8,108.9,128.1z M90,147.5c-0.8,0.9-1.7,1.7-2.6,2.3c-0.9,0.6-1.9,1.1-2.8,1.3c1.3-2.1,2-4.5,2.1-6.8
		c0-0.4,0-0.9,0-1.3c0-0.7-0.1-1.3-0.3-1.9c-0.1-0.4-0.2-0.7-0.3-1.1c-0.3-1-0.8-1.9-1.4-2.8c-0.4-0.6-0.8-1.1-1.2-1.6
		c0.2-0.3,0.4-0.5,0.6-0.8c1.6-2.5,1.8-5.3,0.7-8.8c1.6-0.5,3.1-1.3,4.6-2.2c1.6-1,3-2.3,4.3-3.8c0.4-0.5,0.8-1,1.2-1.5
		c1.1,3.4,1.7,7.3,1.5,11.4c-0.2,6.5-2.2,12.5-5.3,16.5c-0.2,0.2-0.3,0.4-0.5,0.6C90.3,147.1,90.1,147.3,90,147.5z M78,155.5
		c-1.4,0.9-3,1.7-4.6,2.3c-8.4,2.8-17-0.5-19.3-7.3c-0.4-1.1-0.5-2.3-0.5-3.5c3.7,0.4,8.4-0.5,14.5-2.8c0.7-0.3,1.3-0.5,2-0.8
		c0.2-0.1,0.5-0.2,0.7-0.3c0.2-0.1,0.5-0.2,0.7-0.3c3.6-1.5,6.3-2.8,8.3-4.2c1-0.7,1.8-1.3,2.5-2c0.3,0.4,0.6,0.8,0.9,1.2
		c0.5,0.8,1,1.6,1.3,2.5c0.1,0.3,0.2,0.7,0.3,1c0.7,3.4-0.2,6.9-2.4,10c-0.2,0.3-0.4,0.5-0.6,0.8c-0.2,0.3-0.4,0.5-0.7,0.7
		C80.2,153.9,79.2,154.8,78,155.5z M45.4,138.7c-1.3-4-1.1-7.8,0.5-11.1c0.1-0.2,0.2-0.3,0.2-0.5c0.1-0.2,0.2-0.3,0.3-0.5
		c1.3-2.3,3.3-4.4,6-6.2c2.1-1.4,4.6-2.6,7.4-3.6c2.4-0.8,4.7-1.4,6.8-1.6c0.3,0,0.5,0,0.8-0.1c0.3,0,0.5,0,0.8,0
		c0.8,0,1.6,0,2.3,0.1c0.3,0,0.5,0.1,0.8,0.1c0.3,0,0.5,0.1,0.8,0.1c1.3,0.3,2.5,0.7,3.7,1.2c0.2,0.1,0.4,0.2,0.6,0.4
		c0.2,0.1,0.3,0.2,0.5,0.3c0.1,0.1,0.3,0.2,0.4,0.3c2,1.3,3.6,3.1,4.8,5.2c0.2,0.4,0.4,0.8,0.6,1.2c0.1,0.2,0.2,0.4,0.3,0.7
		c0.1,0.2,0.2,0.5,0.3,0.7c0,0.1,0,0.1,0.1,0.2c0,0.1,0.1,0.2,0.1,0.4c0,0.1,0,0.1,0.1,0.2c0.9,2.7,0.9,4.9,0,6.8
		c-0.2,0.4-0.4,0.8-0.6,1.1c-0.1,0.2-0.3,0.4-0.4,0.6c-0.1,0.1-0.1,0.2-0.2,0.3c-0.1,0.1-0.2,0.2-0.3,0.3c-0.2,0.2-0.4,0.4-0.6,0.6
		c-0.7,0.6-1.5,1.3-2.4,1.9c-2,1.3-4.6,2.6-8.2,4.1c-0.2,0.1-0.5,0.2-0.7,0.3c-0.2,0.1-0.5,0.2-0.7,0.3c-0.6,0.2-1.3,0.5-1.9,0.7
		c-6,2.3-10.6,3.2-14.1,2.7c-0.3,0-0.5-0.1-0.8-0.1c-0.3-0.1-0.5-0.1-0.8-0.2c-0.6-0.2-1.1-0.3-1.6-0.6
		C48.1,144,46.4,141.9,45.4,138.7z M46.1,99.9c2.4-1.6,5-2.7,7.9-3.5c7-1.7,13.9-0.4,18.6,3.1c0.2,0.2,0.4,0.3,0.6,0.5
		c0.2,0.2,0.4,0.3,0.6,0.5c1.9,1.7,3.2,3.9,3.9,6.3c0,0.1,0.1,0.2,0.1,0.3c0,0.2,0.1,0.3,0.1,0.5c0.1,0.3,0.1,0.6,0.2,0.8
		c0.3,2.5-0.1,5.1-1.2,7.5c-0.2-0.1-0.4-0.2-0.6-0.4c-1.1-0.6-2.3-1-3.6-1.2c-0.3-0.1-0.6-0.1-0.8-0.2c-0.3,0-0.5-0.1-0.8-0.1
		c-0.9-0.1-1.9-0.2-2.9-0.1c-0.3,0-0.5,0-0.8,0c-0.3,0-0.5,0-0.8,0.1c-2.3,0.2-4.6,0.8-7.1,1.6c-2.9,1-5.5,2.3-7.7,3.7
		c-2.8,1.9-4.9,4.1-6.3,6.6c-3.7-2-6.4-5.1-7.4-9.1C36.5,110.9,39.7,104.2,46.1,99.9z M76.5,98.4c5.6-3.7,12.2-3.8,16.3-0.2
		c2.3,2,3.5,4.7,3.8,7.8c0,0.3,0,0.5,0.1,0.8c0,0.3,0,0.5,0,0.8c0,2.4-0.6,4.9-1.8,7.2c-0.1,0.3-0.3,0.6-0.5,0.8
		c-0.2,0.3-0.3,0.6-0.5,0.8c-0.5,0.8-1.1,1.6-1.7,2.3c-1.2,1.4-2.5,2.5-3.9,3.5c-1.4,0.9-2.8,1.6-4.2,2.1c-0.1-0.3-0.3-0.6-0.4-0.9
		c-0.2-0.4-0.4-0.8-0.6-1.2c-0.2-0.3-0.4-0.7-0.6-1c-1.2-1.9-2.8-3.5-4.6-4.7c1.3-2.8,1.7-5.8,1.2-8.6c0-0.3-0.1-0.5-0.2-0.8
		c0-0.1,0-0.2,0-0.2c0-0.2-0.1-0.4-0.2-0.6c-0.7-2.5-2.2-4.8-4.1-6.6C75.2,99.3,75.9,98.8,76.5,98.4z"/>
	<path fill="#CBD0D3" d="M97.8,129.8c-0.2,6.7-2.3,12.9-5.4,17.2c1,0.4,2,0.7,3.1,0.7c1.8,0.1,3.6-0.5,5.4-1.6
		c4.7-3.1,7.9-10.2,8.2-18c0.4-10.2-4.3-18.9-10.6-20.3c-0.1,3-1,6-2.6,8.9C97.2,120.5,98,125,97.8,129.8z"/>
	<path fill="#CBD0D3" d="M94.7,118.3c-0.4,0.5-0.8,1-1.2,1.5c-1.3,1.5-2.7,2.7-4.3,3.8c-1.5,1-3,1.7-4.6,2.2
		c1.1,3.5,0.9,6.3-0.7,8.8c-0.2,0.3-0.4,0.5-0.6,0.8c0.4,0.5,0.9,1,1.2,1.6c0.6,0.9,1,1.8,1.4,2.8c0.1,0.4,0.2,0.7,0.3,1.1
		c0.1,0.6,0.2,1.3,0.3,1.9c0,0.4,0,0.9,0,1.3c-0.1,2.3-0.8,4.7-2.1,6.8c1-0.3,1.9-0.7,2.8-1.3c0.9-0.6,1.8-1.4,2.6-2.3
		c0.2-0.2,0.3-0.4,0.5-0.6c0.2-0.2,0.3-0.4,0.5-0.6c3.1-4.1,5-10,5.3-16.5C96.4,125.6,95.8,121.7,94.7,118.3z"/>
	<path fill="#CBD0D3" d="M96.8,106.8c0-0.3,0-0.5-0.1-0.8c-0.3-3-1.5-5.8-3.8-7.8c-4.2-3.6-10.8-3.5-16.3,0.2
		c-0.7,0.4-1.3,0.9-1.9,1.5c1.9,1.8,3.4,4,4.1,6.6c0.1,0.2,0.1,0.4,0.2,0.6c0,0.1,0,0.2,0,0.2c0.1,0.3,0.1,0.5,0.2,0.8
		c0.5,2.9,0,5.9-1.2,8.6c1.8,1.2,3.4,2.8,4.6,4.7c0.2,0.3,0.4,0.6,0.6,1c0.2,0.4,0.4,0.8,0.6,1.2c0.1,0.3,0.3,0.6,0.4,0.9
		c1.4-0.5,2.9-1.2,4.2-2.1c1.5-1,2.8-2.1,3.9-3.5c0.6-0.8,1.2-1.5,1.7-2.3c0.2-0.3,0.3-0.6,0.5-0.8c0.2-0.3,0.3-0.6,0.5-0.8
		c1.2-2.4,1.8-4.8,1.8-7.2C96.8,107.3,96.8,107,96.8,106.8z"/>
	<path fill="#CBD0D3" d="M78.1,108.5c0-0.3-0.1-0.6-0.2-0.8c0-0.2-0.1-0.3-0.1-0.5c0-0.1-0.1-0.2-0.1-0.3c-0.7-2.5-2-4.6-3.9-6.3
		c-0.2-0.2-0.4-0.4-0.6-0.5c-0.2-0.2-0.4-0.3-0.6-0.5c-4.6-3.5-11.5-4.8-18.6-3.1c-2.9,0.7-5.5,1.9-7.9,3.5
		c-6.5,4.3-9.7,11-8.1,17.2c1,3.9,3.7,7.1,7.4,9.1c1.4-2.5,3.5-4.7,6.3-6.6c2.2-1.4,4.7-2.7,7.7-3.7c2.5-0.9,4.9-1.4,7.1-1.6
		c0.3,0,0.5,0,0.8-0.1c0.3,0,0.5,0,0.8,0c1,0,2,0,2.9,0.1c0.3,0,0.6,0.1,0.8,0.1c0.3,0,0.6,0.1,0.8,0.2c1.3,0.3,2.5,0.7,3.6,1.2
		c0.2,0.1,0.4,0.2,0.6,0.4C78,113.6,78.5,111.1,78.1,108.5z"/>
	<path fill="#CBD0D3" d="M84.8,141.4c-0.1-0.4-0.2-0.7-0.3-1c-0.3-0.9-0.7-1.8-1.3-2.5c-0.3-0.4-0.6-0.8-0.9-1.2
		c-0.7,0.7-1.6,1.4-2.5,2c-2,1.4-4.7,2.7-8.3,4.2c-0.2,0.1-0.5,0.2-0.7,0.3c-0.2,0.1-0.5,0.2-0.7,0.3c-0.6,0.2-1.3,0.5-2,0.8
		c-6.1,2.3-10.9,3.2-14.5,2.8c0,1.2,0.2,2.3,0.5,3.5c2.3,6.8,10.9,10.1,19.3,7.3c1.7-0.5,3.2-1.3,4.6-2.3c1.1-0.8,2.1-1.6,3-2.5
		c0.2-0.2,0.5-0.5,0.7-0.7c0.2-0.3,0.4-0.5,0.6-0.8C84.6,148.4,85.5,144.8,84.8,141.4z"/>
	<path fill="#CBD0D3" d="M83.6,126.2c0-0.1,0-0.1-0.1-0.2c0-0.1-0.1-0.3-0.1-0.4c0-0.1,0-0.1-0.1-0.2c-0.1-0.2-0.2-0.5-0.3-0.7
		c-0.1-0.2-0.2-0.4-0.3-0.7c-0.2-0.4-0.4-0.8-0.6-1.2c-1.2-2.2-2.8-3.9-4.8-5.2c-0.1-0.1-0.3-0.2-0.4-0.3c-0.2-0.1-0.3-0.2-0.5-0.3
		c-0.2-0.1-0.4-0.3-0.6-0.4c-1.1-0.6-2.4-1-3.7-1.2c-0.3-0.1-0.5-0.1-0.8-0.1c-0.3,0-0.5-0.1-0.8-0.1c-0.7-0.1-1.5-0.1-2.3-0.1
		c-0.3,0-0.5,0-0.8,0c-0.3,0-0.5,0-0.8,0.1c-2.2,0.2-4.5,0.7-6.8,1.6c-2.8,1-5.4,2.2-7.4,3.6c-2.7,1.8-4.7,3.9-6,6.2
		c-0.1,0.2-0.2,0.3-0.3,0.5c-0.1,0.2-0.2,0.3-0.2,0.5c-1.6,3.4-1.8,7.1-0.5,11.1c1.1,3.2,2.7,5.3,5.1,6.4c0.5,0.2,1.1,0.4,1.6,0.6
		c0.3,0.1,0.5,0.1,0.8,0.2c0.3,0,0.5,0.1,0.8,0.1c3.5,0.4,8.1-0.5,14.1-2.7c0.7-0.3,1.3-0.5,1.9-0.7c0.2-0.1,0.5-0.2,0.7-0.3
		c0.2-0.1,0.5-0.2,0.7-0.3c3.6-1.5,6.2-2.8,8.2-4.1c0.9-0.6,1.7-1.3,2.4-1.9c0.2-0.2,0.4-0.4,0.6-0.6c0.1-0.1,0.2-0.2,0.3-0.3
		c0.1-0.1,0.2-0.2,0.2-0.3c0.1-0.2,0.3-0.4,0.4-0.6c0.2-0.4,0.4-0.7,0.6-1.1C84.5,131.1,84.5,128.9,83.6,126.2z"/>
	<path opacity="0.1" fill="#FFFFFF" d="M84.7,20.9c-5.3-1.2-11.7-0.8-18.5,0.7l-37.5,8.1c-2.4,0.5-4.7,1.1-6.9,1.8l-0.5,0.1l0.1,0
		c-3.5,1.2-6.6,2.6-9.2,4.4l63.7,30.6h0c7.2-1.6,13.6-3.9,18-7.5l0.1,0.3c0,0,0,0,0,0l-8.2-38.2C85.4,21.2,85.1,21,84.7,20.9z"/>
	<linearGradient id="SVGID_3_" gradientUnits="userSpaceOnUse" x1="233.883" y1="107.3004" x2="285.762" y2="57.6912">
		<stop  offset="0.3552" style="stop-color:#E75F2F"/>
		<stop  offset="0.4341" style="stop-color:#E8632E"/>
		<stop  offset="0.548" style="stop-color:#EA712D"/>
		<stop  offset="0.6831" style="stop-color:#EF8728"/>
		<stop  offset="0.8345" style="stop-color:#F6A71C"/>
		<stop  offset="0.9952" style="stop-color:#FFCF00"/>
	</linearGradient>
	<path fill="url(#SVGID_3_)" d="M291.8,76.4c-1.8-2.4-2.5-4.3-2.9-8c-0.2-0.8-0.3-1.4-0.3-1.8c-0.8-1.7-2.9-6.7-3.8-12.5
		c-10.1,6.5-24,12-38.6,16.4c6,7.6,10.3,16.5,12.4,26.3c14.2-7.7,26.1-15.2,33.5-20.1l-0.1-0.1L291.8,76.4z"/>
	<path fill="none" d="M184.7,39.6c6.2,3,10.9,8.7,13,15.6c2.3-6.4,6.9-11.6,12.8-14.3c-5.3-1.3-10.9-1.9-16.6-1.9
		C190.8,39,187.8,39.2,184.7,39.6z"/>
	<g>
		<path fill="#203C6F" d="M159.7,111.8c-0.9-0.5-2-0.7-3.1-0.7c-3.9,0-7,3.1-7,7c0,1.3,0.3,2.5,0.9,3.5c-0.1-0.8-0.1-1.6,0-2.5
			C151.2,114.6,155.2,111.4,159.7,111.8z"/>
		<path fill="#203C6F" d="M235.5,116.4c0-2.7-2.2-5-5-5c-0.8,0-1.5,0.2-2.2,0.5c2-0.2,3.9,0.7,5.1,2.2c-0.3,0.4-0.6,0.7-0.9,1.1
			c-3.7,6.5-12.1,13.1-23.2,16.2c-5.8,1.6-12.4,2.3-19.4,1.5c-0.9-0.1-1.9-0.2-2.8-0.4c-14-2.5-26.6-11.6-33.1-18.5
			c0.2,4.2,0.5,19.1,15.9,36.7c1.2-0.7,2.6-1.4,4-1.9c4.4-1.8,9.2-2.6,11.6-1.2c3.1,1,6.2,6.2,9.2,10c-1.3-3.5-2.6-6.4-4-9.2
			c4.7-4.9,20.3-3.6,19.9,17.4c4-1.3,7.5-3.3,10.1-5.8c2.3-2.5,4-5.2,4.9-8.1c0.6-2.1,0.9-4.2,0.7-6.5c-0.7-9.4,6.1-28.2,7.2-31.1
			c0.7,0.8,1.1,1.8,1.3,2.9c0.1,0.6,0.1,1.2,0,1.7C235.2,118.2,235.5,117.3,235.5,116.4z"/>
	</g>
	<path fill="#FFFFFF" d="M173,134.6c13.3,7.3,44.8,6.9,50-4.6c0.6-1.3,2.3-5.5,2.3-6.5c-8.1,6.4-20.8,11.1-35.3,9.4
		c-12.3-1.4-23.9-8.3-31.5-14.8C158.3,121.5,160.1,127.7,173,134.6z"/>
	<g>
		<path fill="#FFFFFF" d="M182.8,33.3l1.5-2.9c-14-8.7-28.2,3.5-32.4,7.6c0.4-0.2,0.9-0.3,1.3-0.5c5.9-3.6,13.4-5.7,21.5-5.3
			C177.6,32.3,180.3,32.7,182.8,33.3z"/>
	</g>
	<g>
		<path fill="#FFFFFF" d="M210.6,32.3l-1.2-2.3c11.3-7,22.6,2.6,25.9,5.9c-0.3-0.1-0.7-0.3-1.1-0.4c-4.7-2.9-10.7-4.5-17.2-4.2
			C214.8,31.5,212.7,31.8,210.6,32.3z"/>
	</g>
	<g>
		<path fill="#FFFFFF" d="M337.5,131.3c2.5-2.3,4.8-6.1,4.8-11.1v-1.3c0-7.3-2.6-12.3-7.9-15.3c-4.4-2.5-10.9-3.7-20.4-3.7
			c-3.1,0-12.4,0.3-16.5,1c-5.2,0.9-6.7,2.8-6.7,8.2V155c0,5.4,1.6,7.3,6.7,8.3c5.4,1,16.4,1,16.5,1c8.2,0,14.1-1.1,18.7-3.4
			c6.6-3.3,9.9-9.1,9.9-17.2v-0.9C342.6,138.3,340.2,133.9,337.5,131.3z M311.9,139.3h5.4c3.9,0,4.4,1.5,4.4,3.2v0.5
			c0,2.2-1.5,3.4-4.4,3.4h-5.4V139.3z M321.5,121.7c0,0.9,0,2.6-4.2,2.6h-5.4v-6.6h5.4c2.8,0,4.2,0.9,4.2,2.6V121.7z"/>
		<path fill="#FFFFFF" d="M365.1,97.8h-14.6c-1.7,0-3.1,1.3-3.1,3v59.7c0,1.6,1.4,3,3.1,3h14.6c1.6,0,3-1.4,3-3v-59.7
			C368.1,99.1,366.8,97.8,365.1,97.8z"/>
		<path fill="#FFFFFF" d="M449.6,112.3c-15.3,0-23.8,8.5-23.8,24v4.9c0,14.4,8.6,23,23,23c7.2,0,14.2-1.2,19-3.2
			c1.7-0.7,2.3-1.6,2.3-3.5V149c0-1.7-1-2.7-2.7-2.7c-0.1,0-0.3,0-0.4,0c-2.7,0.2-11.6,0.6-15.1,0.6c-4.4,0-5.5-0.7-5.7-2.7h23.2
			c1.7,0,3-1.3,3-3v-4.9C472.4,120.8,464.3,112.3,449.6,112.3z M449.4,128.4c1.5,0,3,0.4,3.3,4.2h-6.6
			C446.5,128.4,448.7,128.4,449.4,128.4z"/>
		<path fill="#FFFFFF" d="M531.5,101.5c-0.3-0.4-0.9-0.8-2-0.8h-16.9c-1.4,0-2.7,1.1-2.9,2.7l-6.4,39.7l-6.4-39.7
			c-0.3-1.6-1.5-2.7-2.9-2.7h-16.9c-1,0-1.6,0.5-2,0.8c-0.5,0.6-0.7,1.4-0.5,2.3l9.6,49c2,10.1,10.7,11.5,19,11.5
			c8.3,0,17-1.4,19-11.5l9.6-49C532.2,102.9,532,102.1,531.5,101.5z"/>
		<path fill="#FFFFFF" d="M554.1,112.3c-15.3,0-23.8,8.5-23.8,24v4.9c0,14.4,8.6,23,23,23c7.2,0,14.2-1.2,19-3.2
			c1.7-0.7,2.3-1.6,2.3-3.5V149c0-1.7-1-2.7-2.7-2.7c-0.1,0-0.3,0-0.4,0c-2.7,0.2-11.6,0.6-15.1,0.6c-4.4,0-5.5-0.7-5.7-2.7h23.2
			c1.7,0,3-1.3,3-3v-4.9C576.9,120.8,568.8,112.3,554.1,112.3z M554,128.4c1.5,0,3,0.4,3.3,4.2h-6.6
			C551.1,128.4,553.2,128.4,554,128.4z"/>
		<path fill="#FFFFFF" d="M625.7,97.8h-14.6c-1.7,0-3.1,1.3-3.1,3v59.7c0,1.6,1.4,3,3.1,3h14.6c1.6,0,3-1.4,3-3v-59.7
			C628.6,99.1,627.3,97.8,625.7,97.8z"/>
		<path fill="#FFFFFF" d="M394.6,116.1c0-1.6-1.4-3-3-3H377c-1.7,0-3.1,1.3-3.1,3v44.3c0,1.6,1.4,3,3.1,3h14.5c1.7,0,3-1.4,3-3
			V116.1z"/>
		<path fill="#FFFFFF" d="M376.5,112h15.3c1.7,0,3.1-1.3,3.1-3v-8.3c0-1.6-1.4-3-3.1-3h-15.3c-1.7,0-3.1,1.3-3.1,3v8.3
			C373.4,110.6,374.8,112,376.5,112z"/>
		<path fill="#FFFFFF" d="M418.2,113.1h-14.5c-1.7,0-3.1,1.3-3.1,3v47c0,1.4-0.2,1.6-0.2,1.7c0,0-0.1,0-0.2,0h-3.4c-1.7,0-3,1.3-3,3
			v8.8c0,1.5,1.1,2.8,2.8,3c3.1,0.5,5.8,0.9,8.9,0.9c10.7,0,15.8-5.7,15.8-17.4v-47C421.2,114.4,419.9,113.1,418.2,113.1z"/>
		<path fill="#FFFFFF" d="M418.5,97.8h-15.3c-1.7,0-3.1,1.3-3.1,3v8.3c0,1.6,1.4,3,3.1,3h15.3c1.7,0,3.1-1.3,3.1-3v-8.3
			C421.7,99.1,420.3,97.8,418.5,97.8z"/>
		<path fill="#FFFFFF" d="M599.5,97.8h-15.3c-1.7,0-3.1,1.3-3.1,3v8.3c0,1.6,1.4,3,3.1,3h15.3c1.7,0,3.1-1.3,3.1-3v-8.3
			C602.6,99.1,601.2,97.8,599.5,97.8z"/>
		<path fill="#FFFFFF" d="M599.2,113.1h-14.5c-1.7,0-3.1,1.3-3.1,3v44.3c0,1.6,1.4,3,3.1,3h14.5c1.7,0,3-1.4,3-3v-44.3
			C602.2,114.4,600.9,113.1,599.2,113.1z"/>
		<path fill="#FFFFFF" d="M652.4,97.8h-15.3c-1.7,0-3.1,1.3-3.1,3v8.3c0,1.6,1.4,3,3.1,3h15.3c1.7,0,3.1-1.3,3.1-3v-8.3
			C655.5,99.1,654.1,97.8,652.4,97.8z"/>
		<path fill="#FFFFFF" d="M652.1,113.1h-14.5c-1.7,0-3.1,1.3-3.1,3v44.3c0,1.6,1.4,3,3.1,3h14.5c1.7,0,3-1.4,3-3v-44.3
			C655.1,114.4,653.8,113.1,652.1,113.1z"/>
		<path fill="#FFFFFF" d="M692.1,112.3c-6,0-9.1,1.3-12,3.4c-0.1-1.5-1.4-2.6-2.9-2.6h-13.4c-1.6,0-2.9,1.3-2.9,2.9v44.4
			c0,1.6,1.4,3,3.1,3h14.6c1.6,0,2.9-1.3,2.9-3v-30c1.1-0.5,2.1-0.7,3.2-0.7c2.9,0,2.9,2,2.9,2.7v28c0,1.7,1.4,3,3,3h14.6
			c1.6,0,3-1.4,3-3v-28c0-6.1-1-10.6-3.1-13.9C702.3,114.4,698,112.3,692.1,112.3z"/>
		<path fill="#FFFFFF" d="M759.4,113.1h-24.6c-14.2,0-21.4,5.7-21.4,17v1.1c0,5,1.3,7.8,3.4,10.2c-1.9,1.7-3.7,4.4-3.7,7.7
			c0,3.7,1.7,6.2,3.1,7.2c-2.3,2.2-3.6,5.1-3.6,7.8v1.8c0,5.4,3,14.4,22.8,14.4c8.3,0,14.3-1,18.4-3.2c4.6-2.4,6.9-6.4,6.9-11.8
			v-1.6c0-10.1-11.5-12.2-21.7-14.1l-0.2,0l-8.8-1.6c-0.3-0.1-0.4-0.1-0.4-0.2c0,0,0,0,0-0.1c2,0.4,5,0.7,7.2,0.7
			c15.2,0,23-5.8,23-17.2v-1.1c0-1.2-0.2-2.6-0.6-3.8l0.6-0.1c1.6-0.3,2.7-1.5,2.7-3v-7C762.4,114.5,761,113.1,759.4,113.1z
			 M736.7,133.7c-2.9,0-3.1-1.2-3.1-2.6v-1.1c0-1.4,0.2-2.5,3.1-2.5c2.9,0,3.1,1.1,3.1,2.5v1.1C739.8,132.5,739.6,133.7,736.7,133.7
			z M739.1,165c0,0.6,0,1.6-3.8,1.6c-2.6,0-3.8-1.2-3.8-2.1v-1.8c0-0.5,0-0.7,0.2-1l2.8,0.5c4.5,0.8,4.6,1.5,4.6,1.6V165z"/>
		<path fill="#FFFFFF" d="M781,145.4h-14.1c-1.6,0-3,1.3-3,2.9v12.3c0,1.6,1.4,2.9,3,2.9H781c1.6,0,3-1.3,3-2.9v-12.3
			C783.9,146.7,782.6,145.4,781,145.4z"/>
		<path fill="#FFFFFF" d="M819.9,112.3c-6,0-9.1,1.3-12,3.4c-0.1-1.5-1.4-2.6-2.9-2.6h-13.4c-1.6,0-2.9,1.3-2.9,2.9v44.4
			c0,1.6,1.4,3,3.1,3h14.6c1.6,0,2.9-1.3,2.9-3v-30c1.1-0.5,2.1-0.7,3.2-0.7c2.9,0,2.9,2,2.9,2.7v28c0,1.7,1.4,3,3,3H833
			c1.7,0,3-1.3,3-3v-28c0-6.1-1-10.6-3.1-13.9C830.1,114.4,825.8,112.3,819.9,112.3z"/>
		<path fill="#FFFFFF" d="M859.2,97.8h-14.6c-1.7,0-3.1,1.3-3.1,3v59.7c0,1.6,1.4,3,3.1,3h14.6c1.6,0,3-1.4,3-3v-59.7
			C862.2,99.1,860.9,97.8,859.2,97.8z"/>
	</g>
	<g>
		<linearGradient id="SVGID_4_" gradientUnits="userSpaceOnUse" x1="247.3501" y1="132.0695" x2="882.1678" y2="132.0695">
			<stop  offset="0.3552" style="stop-color:#E75F2F"/>
			<stop  offset="0.4341" style="stop-color:#E8632E"/>
			<stop  offset="0.548" style="stop-color:#EA712D"/>
			<stop  offset="0.6831" style="stop-color:#EF8728"/>
			<stop  offset="0.8345" style="stop-color:#F6A71C"/>
			<stop  offset="0.9952" style="stop-color:#FFCF00"/>
		</linearGradient>
		<path fill="url(#SVGID_4_)" d="M335.5,131.3c3-2,5.6-6.1,5.6-11.1v-1.3c0-14.3-10.5-17.7-27.1-17.7c-2.9,0-12.2,0.3-16.3,1
			c-4.4,0.7-5.7,1.9-5.7,7V155c0,5,1.3,6.2,5.7,7.1c4.5,0.8,13.4,1,16.3,1c11.9,0,27.4-2.2,27.4-19.3v-0.9
			C341.4,138.1,338.5,133.4,335.5,131.3z M310.7,116.5h6.6c4.2,0,5.4,1.9,5.4,3.9v1.3c0,2.2-1.2,3.9-5.4,3.9h-6.6V116.5z M323,143
			c0,2.4-1.4,4.6-5.7,4.6h-6.6V138h6.6c4.2,0,5.7,1.8,5.7,4.5V143z"/>
		<linearGradient id="SVGID_5_" gradientUnits="userSpaceOnUse" x1="241.537" y1="130.6112" x2="903.5048" y2="130.6112">
			<stop  offset="0.3552" style="stop-color:#E75F2F"/>
			<stop  offset="0.4341" style="stop-color:#E8632E"/>
			<stop  offset="0.548" style="stop-color:#EA712D"/>
			<stop  offset="0.6831" style="stop-color:#EF8728"/>
			<stop  offset="0.8345" style="stop-color:#F6A71C"/>
			<stop  offset="0.9952" style="stop-color:#FFCF00"/>
		</linearGradient>
		<path fill="url(#SVGID_5_)" d="M365.1,99h-14.6c-1,0-1.9,0.7-1.9,1.7v59.7c0,1,0.9,1.8,1.9,1.8h14.6c1,0,1.7-0.8,1.7-1.8v-59.7
			C366.8,99.8,366.1,99,365.1,99z"/>
		<linearGradient id="SVGID_6_" gradientUnits="userSpaceOnUse" x1="243.3691" y1="138.2697" x2="880.0677" y2="138.2697">
			<stop  offset="0.3552" style="stop-color:#E75F2F"/>
			<stop  offset="0.4341" style="stop-color:#E8632E"/>
			<stop  offset="0.548" style="stop-color:#EA712D"/>
			<stop  offset="0.6831" style="stop-color:#EF8728"/>
			<stop  offset="0.8345" style="stop-color:#F6A71C"/>
			<stop  offset="0.9952" style="stop-color:#FFCF00"/>
		</linearGradient>
		<path fill="url(#SVGID_6_)" d="M449.6,113.5c-13.8,0-22.5,7.2-22.5,22.8v4.9c0,15.2,9.7,21.7,21.7,21.7c6.6,0,13.5-1,18.6-3.1
			c1.2-0.5,1.5-1,1.5-2.3V149c0-1.2-0.5-1.5-1.4-1.5c-0.1,0-0.2,0-0.4,0c-2.8,0.2-11.8,0.6-15.2,0.6c-5.5,0-7-1.1-7-5.2h24.5
			c1,0,1.8-0.7,1.8-1.7v-4.9C471.1,122.5,464.6,113.5,449.6,113.5z M444.9,133.9c0-3.9,1.2-6.7,4.5-6.7c3.6,0,4.6,2.8,4.6,6.7H444.9
			z"/>
		<linearGradient id="SVGID_7_" gradientUnits="userSpaceOnUse" x1="243.2385" y1="132.4745" x2="876.4811" y2="132.4745">
			<stop  offset="0.3552" style="stop-color:#E75F2F"/>
			<stop  offset="0.4341" style="stop-color:#E8632E"/>
			<stop  offset="0.548" style="stop-color:#EA712D"/>
			<stop  offset="0.6831" style="stop-color:#EF8728"/>
			<stop  offset="0.8345" style="stop-color:#F6A71C"/>
			<stop  offset="0.9952" style="stop-color:#FFCF00"/>
		</linearGradient>
		<path fill="url(#SVGID_7_)" d="M529.6,102h-16.9c-0.9,0-1.5,0.7-1.7,1.6l-6.9,42.9c-0.1,0.6-0.2,1.1-0.7,1.1
			c-0.6,0-0.6-0.4-0.7-1.1l-6.9-42.9c-0.2-0.9-0.8-1.6-1.7-1.6h-16.9c-1.1,0-1.4,0.7-1.2,1.6l9.6,49c1.6,8.3,7.9,10.5,17.8,10.5
			c9.9,0,16.1-2.2,17.8-10.5l9.6-49C530.9,102.7,530.6,102,529.6,102z"/>
		<linearGradient id="SVGID_8_" gradientUnits="userSpaceOnUse" x1="240.3847" y1="138.2697" x2="877.088" y2="138.2697">
			<stop  offset="0.3552" style="stop-color:#E75F2F"/>
			<stop  offset="0.4341" style="stop-color:#E8632E"/>
			<stop  offset="0.548" style="stop-color:#EA712D"/>
			<stop  offset="0.6831" style="stop-color:#EF8728"/>
			<stop  offset="0.8345" style="stop-color:#F6A71C"/>
			<stop  offset="0.9952" style="stop-color:#FFCF00"/>
		</linearGradient>
		<path fill="url(#SVGID_8_)" d="M554.1,113.5c-13.8,0-22.5,7.2-22.5,22.8v4.9c0,15.2,9.7,21.7,21.7,21.7c6.6,0,13.5-1,18.6-3.1
			c1.2-0.5,1.5-1,1.5-2.3V149c0-1.2-0.5-1.5-1.4-1.5c-0.1,0-0.2,0-0.4,0c-2.8,0.2-11.8,0.6-15.2,0.6c-5.5,0-7-1.1-7-5.2h24.5
			c1,0,1.8-0.7,1.8-1.7v-4.9C575.7,122.5,569.1,113.5,554.1,113.5z M549.4,133.9c0-3.9,1.2-6.7,4.5-6.7c3.6,0,4.6,2.8,4.6,6.7H549.4
			z"/>
		<linearGradient id="SVGID_9_" gradientUnits="userSpaceOnUse" x1="223.4891" y1="130.6112" x2="885.428" y2="130.6112">
			<stop  offset="0.3552" style="stop-color:#E75F2F"/>
			<stop  offset="0.4341" style="stop-color:#E8632E"/>
			<stop  offset="0.548" style="stop-color:#EA712D"/>
			<stop  offset="0.6831" style="stop-color:#EF8728"/>
			<stop  offset="0.8345" style="stop-color:#F6A71C"/>
			<stop  offset="0.9952" style="stop-color:#FFCF00"/>
		</linearGradient>
		<path fill="url(#SVGID_9_)" d="M625.7,99h-14.6c-1,0-1.9,0.7-1.9,1.7v59.7c0,1,0.9,1.8,1.9,1.8h14.6c1,0,1.7-0.8,1.7-1.8v-59.7
			C627.4,99.8,626.6,99,625.7,99z"/>
		<linearGradient id="SVGID_10_" gradientUnits="userSpaceOnUse" x1="239.7088" y1="138.2704" x2="901.6384" y2="138.2704">
			<stop  offset="0.3552" style="stop-color:#E75F2F"/>
			<stop  offset="0.4341" style="stop-color:#E8632E"/>
			<stop  offset="0.548" style="stop-color:#EA712D"/>
			<stop  offset="0.6831" style="stop-color:#EF8728"/>
			<stop  offset="0.8345" style="stop-color:#F6A71C"/>
			<stop  offset="0.9952" style="stop-color:#FFCF00"/>
		</linearGradient>
		<path fill="url(#SVGID_10_)" d="M391.5,114.4H377c-1,0-1.9,0.7-1.9,1.7v44.3c0,1,0.9,1.8,1.9,1.8h14.5c1,0,1.8-0.8,1.8-1.8v-44.3
			C393.3,115.1,392.5,114.4,391.5,114.4z"/>
		<linearGradient id="SVGID_11_" gradientUnits="userSpaceOnUse" x1="240.1395" y1="104.8776" x2="900.1065" y2="104.8776">
			<stop  offset="0.3552" style="stop-color:#E75F2F"/>
			<stop  offset="0.4341" style="stop-color:#E8632E"/>
			<stop  offset="0.548" style="stop-color:#EA712D"/>
			<stop  offset="0.6831" style="stop-color:#EF8728"/>
			<stop  offset="0.8345" style="stop-color:#F6A71C"/>
			<stop  offset="0.9952" style="stop-color:#FFCF00"/>
		</linearGradient>
		<path fill="url(#SVGID_11_)" d="M376.5,110.7h15.3c1,0,1.9-0.7,1.9-1.7v-8.3c0-1-0.9-1.7-1.9-1.7h-15.3c-1,0-1.9,0.7-1.9,1.7v8.3
			C374.7,110,375.6,110.7,376.5,110.7z"/>
		<linearGradient id="SVGID_12_" gradientUnits="userSpaceOnUse" x1="241.088" y1="146.7809" x2="891.3315" y2="146.7809">
			<stop  offset="0.3552" style="stop-color:#E75F2F"/>
			<stop  offset="0.4341" style="stop-color:#E8632E"/>
			<stop  offset="0.548" style="stop-color:#EA712D"/>
			<stop  offset="0.6831" style="stop-color:#EF8728"/>
			<stop  offset="0.8345" style="stop-color:#F6A71C"/>
			<stop  offset="0.9952" style="stop-color:#FFCF00"/>
		</linearGradient>
		<path fill="url(#SVGID_12_)" d="M418.2,114.4h-14.5c-1,0-1.9,0.7-1.9,1.7v47c0,1.6-0.2,3-1.7,3h-3.4c-1,0-1.7,0.7-1.7,1.7v8.8
			c0,1,0.7,1.6,1.7,1.8c3.2,0.6,5.8,0.9,8.7,0.9c8.4,0,14.6-3.6,14.6-16.1v-47C420,115.1,419.2,114.4,418.2,114.4z"/>
		<linearGradient id="SVGID_13_" gradientUnits="userSpaceOnUse" x1="238.3865" y1="104.8776" x2="898.3185" y2="104.8776">
			<stop  offset="0.3552" style="stop-color:#E75F2F"/>
			<stop  offset="0.4341" style="stop-color:#E8632E"/>
			<stop  offset="0.548" style="stop-color:#EA712D"/>
			<stop  offset="0.6831" style="stop-color:#EF8728"/>
			<stop  offset="0.8345" style="stop-color:#F6A71C"/>
			<stop  offset="0.9952" style="stop-color:#FFCF00"/>
		</linearGradient>
		<path fill="url(#SVGID_13_)" d="M418.5,99h-15.3c-1,0-1.9,0.7-1.9,1.7v8.3c0,1,0.9,1.7,1.9,1.7h15.3c1,0,1.9-0.7,1.9-1.7v-8.3
			C420.4,99.8,419.5,99,418.5,99z"/>
		<linearGradient id="SVGID_14_" gradientUnits="userSpaceOnUse" x1="226.4404" y1="104.8776" x2="886.3575" y2="104.8776">
			<stop  offset="0.3552" style="stop-color:#E75F2F"/>
			<stop  offset="0.4341" style="stop-color:#E8632E"/>
			<stop  offset="0.548" style="stop-color:#EA712D"/>
			<stop  offset="0.6831" style="stop-color:#EF8728"/>
			<stop  offset="0.8345" style="stop-color:#F6A71C"/>
			<stop  offset="0.9952" style="stop-color:#FFCF00"/>
		</linearGradient>
		<path fill="url(#SVGID_14_)" d="M599.5,99h-15.3c-1,0-1.9,0.7-1.9,1.7v8.3c0,1,0.9,1.7,1.9,1.7h15.3c1,0,1.9-0.7,1.9-1.7v-8.3
			C601.4,99.8,600.5,99,599.5,99z"/>
		<linearGradient id="SVGID_15_" gradientUnits="userSpaceOnUse" x1="225.3396" y1="138.2704" x2="887.2422" y2="138.2704">
			<stop  offset="0.3552" style="stop-color:#E75F2F"/>
			<stop  offset="0.4341" style="stop-color:#E8632E"/>
			<stop  offset="0.548" style="stop-color:#EA712D"/>
			<stop  offset="0.6831" style="stop-color:#EF8728"/>
			<stop  offset="0.8345" style="stop-color:#F6A71C"/>
			<stop  offset="0.9952" style="stop-color:#FFCF00"/>
		</linearGradient>
		<path fill="url(#SVGID_15_)" d="M599.2,114.4h-14.5c-1,0-1.9,0.7-1.9,1.7v44.3c0,1,0.9,1.8,1.9,1.8h14.5c1,0,1.8-0.8,1.8-1.8
			v-44.3C601,115.1,600.1,114.4,599.2,114.4z"/>
		<linearGradient id="SVGID_16_" gradientUnits="userSpaceOnUse" x1="222.9265" y1="104.8776" x2="882.8749" y2="104.8776">
			<stop  offset="0.3552" style="stop-color:#E75F2F"/>
			<stop  offset="0.4341" style="stop-color:#E8632E"/>
			<stop  offset="0.548" style="stop-color:#EA712D"/>
			<stop  offset="0.6831" style="stop-color:#EF8728"/>
			<stop  offset="0.8345" style="stop-color:#F6A71C"/>
			<stop  offset="0.9952" style="stop-color:#FFCF00"/>
		</linearGradient>
		<path fill="url(#SVGID_16_)" d="M652.4,99h-15.3c-1,0-1.9,0.7-1.9,1.7v8.3c0,1,0.9,1.7,1.9,1.7h15.3c1,0,1.9-0.7,1.9-1.7v-8.3
			C654.3,99.8,653.4,99,652.4,99z"/>
		<linearGradient id="SVGID_17_" gradientUnits="userSpaceOnUse" x1="221.6545" y1="138.2704" x2="883.5897" y2="138.2704">
			<stop  offset="0.3552" style="stop-color:#E75F2F"/>
			<stop  offset="0.4341" style="stop-color:#E8632E"/>
			<stop  offset="0.548" style="stop-color:#EA712D"/>
			<stop  offset="0.6831" style="stop-color:#EF8728"/>
			<stop  offset="0.8345" style="stop-color:#F6A71C"/>
			<stop  offset="0.9952" style="stop-color:#FFCF00"/>
		</linearGradient>
		<path fill="url(#SVGID_17_)" d="M652.1,114.4h-14.5c-1,0-1.9,0.7-1.9,1.7v44.3c0,1,0.9,1.8,1.9,1.8h14.5c1,0,1.8-0.8,1.8-1.8
			v-44.3C653.9,115.1,653.1,114.4,652.1,114.4z"/>
		<linearGradient id="SVGID_18_" gradientUnits="userSpaceOnUse" x1="236.8409" y1="137.8651" x2="873.2747" y2="137.8651">
			<stop  offset="0.3552" style="stop-color:#E75F2F"/>
			<stop  offset="0.4341" style="stop-color:#E8632E"/>
			<stop  offset="0.548" style="stop-color:#EA712D"/>
			<stop  offset="0.6831" style="stop-color:#EF8728"/>
			<stop  offset="0.8345" style="stop-color:#F6A71C"/>
			<stop  offset="0.9952" style="stop-color:#FFCF00"/>
		</linearGradient>
		<path fill="url(#SVGID_18_)" d="M692.1,113.5c-6.9,0-9.5,1.6-13.3,4.7V116c0-0.9-0.7-1.6-1.6-1.6h-13.4c-0.9,0-1.6,0.7-1.6,1.6
			v44.4c0,1,0.9,1.8,1.9,1.8h14.6c1,0,1.6-0.8,1.6-1.8v-30.8c1.5-0.8,3-1.2,4.5-1.2c2.3,0,4.1,1.1,4.1,4v28c0,1,0.8,1.8,1.8,1.8
			h14.6c1,0,1.7-0.8,1.7-1.8v-28C706.9,122.2,704,113.5,692.1,113.5z"/>
		<linearGradient id="SVGID_19_" gradientUnits="userSpaceOnUse" x1="236.1086" y1="146.6593" x2="871.588" y2="146.6593">
			<stop  offset="0.3552" style="stop-color:#E75F2F"/>
			<stop  offset="0.4341" style="stop-color:#E8632E"/>
			<stop  offset="0.548" style="stop-color:#EA712D"/>
			<stop  offset="0.6831" style="stop-color:#EF8728"/>
			<stop  offset="0.8345" style="stop-color:#F6A71C"/>
			<stop  offset="0.9952" style="stop-color:#FFCF00"/>
		</linearGradient>
		<path fill="url(#SVGID_19_)" d="M759.4,114.4h-24.6c-14.4,0-20.2,5.9-20.2,15.7v1.1c0,5.2,1.4,7.8,4,10.4
			c-2.1,1.4-4.3,4.1-4.3,7.5c0,3.8,1.9,5.9,2.9,6.4l1.1,0.6c-2.8,2.1-4.5,5.1-4.5,8v1.8c0,8.4,7.4,13.1,21.6,13.1
			c15.4,0,24.1-3.6,24.1-13.7v-1.6c0-9.1-10.8-11-20.8-12.9l-8.8-1.6c-1.2-0.2-1.5-0.9-1.5-1.4c0-0.6,0.3-1.1,0.9-1.5
			c1.6,0.5,4.9,0.8,7.5,0.8c13.5,0,21.7-4.5,21.7-16v-1.1c0-1.6-0.5-3.5-1.1-4.7l2.1-0.4c0.9-0.2,1.7-0.8,1.7-1.8v-7
			C761.1,115.2,760.4,114.4,759.4,114.4z M730.2,162.7c0-1.4,0.4-1.7,0.9-2.4l3.6,0.6c4.9,0.9,5.7,1.8,5.7,2.8v1.1
			c0,1.5-0.7,2.8-5,2.8c-3.4,0-5.1-1.8-5.1-3.3V162.7z M741.1,131.1c0,2.2-0.9,3.8-4.4,3.8c-3.5,0-4.4-1.6-4.4-3.8v-1.1
			c0-2.2,0.9-3.7,4.4-3.7c3.5,0,4.4,1.5,4.4,3.7V131.1z"/>
		<linearGradient id="SVGID_20_" gradientUnits="userSpaceOnUse" x1="211.3347" y1="154.3991" x2="874.8917" y2="154.3991">
			<stop  offset="0.3552" style="stop-color:#E75F2F"/>
			<stop  offset="0.4341" style="stop-color:#E8632E"/>
			<stop  offset="0.548" style="stop-color:#EA712D"/>
			<stop  offset="0.6831" style="stop-color:#EF8728"/>
			<stop  offset="0.8345" style="stop-color:#F6A71C"/>
			<stop  offset="0.9952" style="stop-color:#FFCF00"/>
		</linearGradient>
		<path fill="url(#SVGID_20_)" d="M781,146.6h-14.1c-0.9,0-1.7,0.7-1.7,1.6v12.3c0,0.9,0.8,1.6,1.7,1.6H781c0.9,0,1.7-0.7,1.7-1.6
			v-12.3C782.7,147.3,781.8,146.6,781,146.6z"/>
		<linearGradient id="SVGID_21_" gradientUnits="userSpaceOnUse" x1="233.2395" y1="137.8651" x2="869.6866" y2="137.8651">
			<stop  offset="0.3552" style="stop-color:#E75F2F"/>
			<stop  offset="0.4341" style="stop-color:#E8632E"/>
			<stop  offset="0.548" style="stop-color:#EA712D"/>
			<stop  offset="0.6831" style="stop-color:#EF8728"/>
			<stop  offset="0.8345" style="stop-color:#F6A71C"/>
			<stop  offset="0.9952" style="stop-color:#FFCF00"/>
		</linearGradient>
		<path fill="url(#SVGID_21_)" d="M819.9,113.5c-6.9,0-9.5,1.6-13.3,4.7V116c0-0.9-0.7-1.6-1.6-1.6h-13.4c-0.9,0-1.6,0.7-1.6,1.6
			v44.4c0,1,0.9,1.8,1.9,1.8h14.6c1,0,1.6-0.8,1.6-1.8v-30.8c1.5-0.8,3-1.2,4.5-1.2c2.3,0,4.1,1.1,4.1,4v28c0,1,0.8,1.8,1.8,1.8H833
			c1,0,1.7-0.8,1.7-1.8v-28C834.7,122.2,831.8,113.5,819.9,113.5z"/>
		<linearGradient id="SVGID_22_" gradientUnits="userSpaceOnUse" x1="207.2885" y1="130.6112" x2="869.2438" y2="130.6112">
			<stop  offset="0.3552" style="stop-color:#E75F2F"/>
			<stop  offset="0.4341" style="stop-color:#E8632E"/>
			<stop  offset="0.548" style="stop-color:#EA712D"/>
			<stop  offset="0.6831" style="stop-color:#EF8728"/>
			<stop  offset="0.8345" style="stop-color:#F6A71C"/>
			<stop  offset="0.9952" style="stop-color:#FFCF00"/>
		</linearGradient>
		<path fill="url(#SVGID_22_)" d="M859.2,99h-14.6c-1,0-1.9,0.7-1.9,1.7v59.7c0,1,0.9,1.8,1.9,1.8h14.6c1,0,1.7-0.8,1.7-1.8v-59.7
			C860.9,99.8,860.2,99,859.2,99z"/>
	</g>
	<g>
		<g>
			<path fill="#FFFFFF" d="M293.3,59.4c0.1-1.2,0.4-2.3,0.6-3.3c-0.7,1.7-1.3,3.6-1.5,5.8c-0.7,5.5,0.5,10.8,2.7,13.9l-0.5-3.7
				C293.2,68.6,292.7,64.1,293.3,59.4z"/>
		</g>
	</g>
	<path fill="#FFFFFF" d="M337.9,56.7c-0.3-2.1-1.3-4.1-2.8-5.8c2.8-2.7,4.3-5.9,3.8-9.1c-1-7.1-11.3-11.4-22.9-9.7
		c-0.3,0-0.6,0.1-0.9,0.2c1.5-7.2,3-19.6-2-26.8c-2.4-3.4-6-5.2-10.6-5.4c-4.6-0.2-7.9,1.4-9.8,4.7c-3.2,5.4-1.5,13.7-0.9,15.6
		l0.1,0.4c1.1,3.2,3.3,10-2,19c-5.5,9.5,1.4,24.6,2.1,25.9c0.1,1,1.3,9.1,6.4,13c1.4,1.1,3,1.7,4.8,1.9c1,0.9,2.2,1.7,3.6,2.4
		c3.8,1.8,8.5,2.3,13.4,1.6c0.5-0.1,1-0.2,1.5-0.3c9.5-1.9,15.9-8.2,15-14.7c-0.2-1.4-0.7-2.6-1.5-3.7
		C337.3,63.1,338.4,59.9,337.9,56.7z M321.4,83.3c-0.5,0.1-1,0.2-1.4,0.3c-4.6,0.7-9.2,0.1-12.8-1.5c-0.9-0.4-1.6-0.9-2.3-1.4
		c-0.2-0.2-0.4-0.3-0.6-0.5c-0.2-0.2-0.4-0.4-0.6-0.6c-1.4-1.4-2.3-2.9-2.5-4.7c-0.3-1.7,0.1-3.5,1-5.1c2.4,2,5.6,3.5,9.2,4.2
		c0.2,0,0.3,0.1,0.5,0.1c0.2,0,0.3,0.1,0.5,0.1c2.2,0.3,4.6,0.3,7,0c0.5-0.1,1.1-0.2,1.6-0.3c5.6-1.1,10.3-3.8,13.4-7.1
		c0.6,0.9,1,2,1.2,3.1C336.4,75.6,330.2,81.5,321.4,83.3z M299,77.8c-5-3.8-6-12.3-6-12.4l0-0.1l0-0.1c-0.1-0.2-7.6-15.8-2.2-25
		c5.5-9.4,3.2-16.5,2.1-19.9l-0.1-0.4c-0.5-1.7-2.1-9.7,0.8-14.7c1.2-2.1,3.1-3.4,5.6-3.9c1-0.2,2.1-0.3,3.3-0.2
		c4.3,0.2,7.6,1.8,9.8,4.9c4.9,6.9,3.2,19.4,1.8,26.4c-10.7,2.2-18,8.9-17,15.6c0.3,1.8,1.1,3.4,2.5,4.8c-2,2.5-2.9,5.4-2.5,8.5
		c0.4,2.8,1.9,5.5,4.3,7.7c-1.1,1.9-1.5,4-1.2,6c0.2,1.5,0.9,3,1.9,4.2C300.9,79,299.9,78.5,299,77.8z M337.9,41.9
		c0.4,2.8-0.9,5.7-3.5,8.2c-0.1,0.1-0.3,0.2-0.4,0.4c-0.1,0.1-0.3,0.2-0.4,0.4c-2.9,2.5-7.1,4.5-12,5.5c-0.6,0.1-1.2,0.2-1.8,0.3
		c-1.7,0.2-3.3,0.4-5,0.4c-0.2,0-0.4,0-0.5,0c-0.2,0-0.4,0-0.5,0c-3.2-0.1-6.1-0.7-8.7-1.8c-1.6-0.7-3-1.5-4.1-2.5
		c-0.1-0.1-0.3-0.2-0.4-0.4c-0.1-0.1-0.3-0.2-0.4-0.4c-1.2-1.2-1.9-2.7-2.1-4.2c-0.9-5.9,6-12.1,15.7-14.3c0.2,0,0.4-0.1,0.6-0.1
		c0,0,0.1,0,0.1,0c0.2,0,0.3-0.1,0.5-0.1c0.4-0.1,0.9-0.2,1.3-0.2C327.2,31.5,336.9,35.4,337.9,41.9z M334,65.4
		c-0.1,0.1-0.2,0.3-0.4,0.4c-2.9,3.2-7.5,5.8-12.9,6.9c-0.5,0.1-1,0.2-1.6,0.3c-2.3,0.3-4.5,0.3-6.5,0c-0.2,0-0.3-0.1-0.5-0.1
		c-0.2,0-0.3,0-0.5-0.1c-3.6-0.7-6.6-2.2-9-4.1c-0.1-0.1-0.3-0.2-0.4-0.3c-0.1-0.1-0.3-0.3-0.4-0.4c-2.1-2-3.5-4.4-3.8-6.9
		c-0.4-2.8,0.4-5.3,2.2-7.6c1.2,1,2.6,1.9,4.4,2.6c2.7,1.1,5.8,1.7,9,1.9c0.2,0,0.4,0,0.5,0c0.2,0,0.4,0,0.5,0
		c1.7,0,3.4-0.1,5.2-0.4c0.6-0.1,1.3-0.2,1.9-0.3c5.2-1.1,9.5-3.1,12.6-5.8c1.4,1.5,2.3,3.3,2.6,5.2c0.4,2.8-0.5,5.7-2.5,8.2
		C334.3,65.2,334.2,65.3,334,65.4z"/>
	<g>
		<path fill="#CBD0D3" d="M314,32.4c1.5-7,3.1-19.5-1.8-26.4c-2.2-3.1-5.5-4.7-9.8-4.9c-1.2-0.1-2.3,0-3.3,0.2
			c-2.5,0.5-4.4,1.8-5.6,3.9c-3,5.1-1.4,13-0.8,14.7l0.1,0.4c1.1,3.4,3.4,10.5-2.1,19.9c-5.4,9.3,2.1,24.9,2.2,25l0,0.1l0,0.1
			c0,0.1,1.1,8.6,6,12.4c0.9,0.7,1.9,1.2,2.9,1.4c-1-1.3-1.6-2.7-1.9-4.2c-0.3-2.1,0.2-4.1,1.2-6c-2.3-2.2-3.9-4.9-4.3-7.7
			c-0.5-3.1,0.4-6,2.5-8.5c-1.3-1.4-2.2-3.1-2.5-4.8C296,41.3,303.3,34.7,314,32.4z"/>
		<path fill="#CBD0D3" d="M335.5,69.8c-0.2-1.1-0.6-2.1-1.2-3.1c-3,3.3-7.8,6-13.4,7.1c-0.5,0.1-1.1,0.2-1.6,0.3
			c-2.5,0.4-4.8,0.4-7,0c-0.2,0-0.3,0-0.5-0.1c-0.2,0-0.3-0.1-0.5-0.1c-3.6-0.7-6.8-2.2-9.2-4.2c-0.9,1.6-1.3,3.4-1,5.1
			c0.3,1.7,1.1,3.3,2.5,4.7c0.2,0.2,0.4,0.4,0.6,0.6c0.2,0.2,0.4,0.3,0.6,0.5c0.7,0.5,1.5,1,2.3,1.4c3.6,1.7,8.1,2.2,12.8,1.5
			c0.5-0.1,1-0.2,1.4-0.3C330.2,81.5,336.4,75.6,335.5,69.8z"/>
		<path fill="#CBD0D3" d="M336.9,56.8c-0.3-1.9-1.2-3.7-2.6-5.2c-3.1,2.6-7.4,4.7-12.6,5.8c-0.6,0.1-1.2,0.2-1.9,0.3
			c-1.7,0.3-3.5,0.4-5.2,0.4c-0.2,0-0.4,0-0.5,0c-0.2,0-0.4,0-0.5,0c-3.3-0.1-6.4-0.7-9-1.9c-1.7-0.7-3.2-1.6-4.4-2.6
			c-1.8,2.2-2.6,4.8-2.2,7.6c0.4,2.5,1.7,4.9,3.8,6.9c0.1,0.1,0.3,0.3,0.4,0.4c0.1,0.1,0.3,0.2,0.4,0.3c2.3,2,5.4,3.5,9,4.1
			c0.2,0,0.3,0.1,0.5,0.1c0.2,0,0.3,0.1,0.5,0.1c2,0.3,4.2,0.3,6.5,0c0.5-0.1,1.1-0.2,1.6-0.3c5.5-1.1,10-3.7,12.9-6.9
			c0.1-0.1,0.2-0.3,0.4-0.4c0.1-0.1,0.2-0.3,0.3-0.4C336.3,62.5,337.3,59.7,336.9,56.8z"/>
		<path fill="#CBD0D3" d="M337.9,41.9c-1-6.5-10.7-10.5-21.7-8.8c-0.4,0.1-0.9,0.1-1.3,0.2c-0.2,0-0.3,0.1-0.5,0.1c0,0-0.1,0-0.1,0
			c-0.2,0-0.4,0.1-0.6,0.1c-9.7,2.2-16.6,8.4-15.7,14.3c0.2,1.5,1,3,2.1,4.2c0.1,0.1,0.3,0.3,0.4,0.4c0.1,0.1,0.2,0.2,0.4,0.4
			c1.1,1,2.4,1.8,4.1,2.5c2.5,1.1,5.5,1.7,8.7,1.8c0.2,0,0.4,0,0.5,0c0.2,0,0.4,0,0.5,0c1.6,0,3.3-0.1,5-0.4
			c0.6-0.1,1.2-0.2,1.8-0.3c4.9-1,9.1-3,12-5.5c0.1-0.1,0.3-0.2,0.4-0.4c0.1-0.1,0.3-0.2,0.4-0.4C336.9,47.6,338.3,44.7,337.9,41.9z
			"/>
	</g>
	<g>
		<g opacity="0.2">
			<g>
				<path fill="#FFFFFF" d="M304.7,75.3c1.1,9.6,27.5,6.1,27.2-3.7c-2.8,3-6.8,5.4-11.6,6.4C314.5,79.2,308.8,78,304.7,75.3z"/>
			</g>
			<g>
				<path fill="#FFFFFF" d="M303.5,65.3c0.1,8,25.6,6.8,26.5-1.2c-3,2.3-7.1,4-11.8,4.5C312.4,69.1,307,67.8,303.5,65.3z"/>
			</g>
			<g>
				<path fill="#FFFFFF" d="M301.5,48.4c1.3,11.2,31.9,7.1,31.6-4.2c-3.2,3.5-7.9,6.3-13.5,7.4C312.7,52.9,306.1,51.6,301.5,48.4z"
					/>
			</g>
		</g>
		<g opacity="0.2">
			<path fill="#FFFFFF" d="M303,5.2c8.1-1.4,11.6,24.2,3.7,26.5c1.8-3.4,2.7-7.8,2.3-12.5C308.5,13.3,306.2,8.3,303,5.2z"/>
		</g>
	</g>
	<g opacity="0.2">
		<g>
			<path fill="#FFFFFF" d="M75.8,122.5c-3.5-9.1-28.1,1-25.4,10.3c1.9-3.6,5.2-6.9,9.6-9.1C65.4,121.1,71.2,120.8,75.8,122.5z"/>
		</g>
		<g>
			<path fill="#FFFFFF" d="M69.4,102.6c-3.7-9.5-29.6,1-26.8,10.9c2-3.8,5.5-7.3,10.2-9.6C58.4,101.2,64.6,100.8,69.4,102.6z"/>
		</g>
		<g>
			<path fill="#FFFFFF" d="M103,119.6c8,1.6,2.1,26.7-6.1,26c2.9-2.5,5.3-6.3,6.7-10.9C105.2,129.2,104.9,123.6,103,119.6z"/>
		</g>
	</g>
</g>
</svg>
