<svg xmlns="http://www.w3.org/2000/svg" width="61" height="38" viewBox="0 0 61 38"><path fill="#0396d3" d="M30.4 32.48a18.94 18.94 0 0 0 0-27.66A17.83 17.83 0 0 0 18.21 0C8.16 0 0 8.37 0 18.67c0 10.31 8.16 18.64 18.21 18.64 4.7 0 8.98-1.83 12.19-4.83"/><path fill="#009ddc" d="M30 32.66a18.79 18.79 0 0 0 5.99-13.81C35.99 13.37 33.67 8.43 30 5z"/><path fill="#e11e26" d="M42.78 0a17.96 17.96 0 0 0-14.04 6.8h3.67c.5.62.97 1.31 1.39 1.97h-6.45c-.39.66-.75 1.31-1.07 1.97h8.56c.28.66.57 1.32.78 1.98H25.53c-.21.65-.39 1.31-.53 2.01h11.15a19.05 19.05 0 0 1-.53 9.86H25.53c.22.66.47 1.32.75 1.97h8.56c-.32.66-.65 1.36-1.04 1.98h-6.45c.43.69.89 1.35 1.39 1.97h3.67c-.57.69-1.17 1.35-1.85 1.97 3.24 3 7.52 4.83 12.22 4.83 10.05 0 18.18-8.33 18.18-18.64C60.96 8.37 52.83 0 42.78 0"/><path fill="#ed1b2d" d="M58.5 28.55h.14s.04-.04.04-.08l-.04-.03c-.03-.04-.07-.04-.07-.04h-.07zm0 .29h-.14v-.51h.21c.07 0 .11 0 .14.04.04 0 .07.07.07.1 0 .08-.03.11-.07.15l.07.22h-.14l-.07-.18h-.07zm.53-.26c0-.25-.21-.43-.46-.43s-.46.18-.46.43c0 .26.21.48.46.48s.46-.22.46-.48zm-.46-.58c.32 0 .57.26.57.58 0 .33-.25.63-.57.63-.32 0-.57-.3-.57-.63 0-.32.25-.58.57-.58z"/><path fill="#003473" d="M14.91 23.46h-2.28l1.35-7.27-3.1 7.27H8.96l-.4-7.23-1.49 7.23H5L6.75 14h3.6l.03 5.85 2.5-5.85h3.81zM40.42 23.35c-.64.19-1.1.26-1.64.26-1.14 0-1.78-.58-1.78-1.68 0-.22.04-.48.07-.7l.14-.76.11-.59L38.35 14h2.25l-.32 1.75h1.14l-.29 1.87h-1.17l-.61 3.21c0 .15-.03.26-.03.33 0 .4.25.55.78.55.25 0 .46 0 .61-.07zM31.89 18.63c0 .95.54 1.64 1.71 2.12.96.4 1.11.51 1.11.88 0 .47-.43.69-1.32.69-.71 0-1.32-.11-2.07-.33L31 23.78h.11l.42.08c.15.03.33.07.61.07.54.04.96.07 1.25.07 2.42 0 3.53-.8 3.53-2.56 0-1.06-.47-1.68-1.61-2.15-.96-.37-1.07-.48-1.07-.84 0-.4.4-.62 1.11-.62.46 0 1.07.03 1.67.11l.32-1.76c-.6-.11-1.49-.18-2.03-.18-2.56 0-3.45 1.21-3.42 2.63M20.24 20.42c-1.28 0-1.92.4-1.92 1.17 0 .48.32.77.82.77.92 0 1.6-.77 1.64-1.9-.25-.04-.36-.04-.54-.04zm2.07 3.47h-1.89l.03-.8c-.57.62-1.35.91-2.38.91A1.98 1.98 0 0 1 16 21.92c0-1.86 1.46-2.96 3.99-2.96.25 0 .57 0 .93.04.07-.26.07-.37.07-.48 0-.51-.39-.73-1.46-.73-.64 0-1.36.11-1.85.22l-.33.11-.21.04.32-1.72a9.11 9.11 0 0 1 2.71-.44c1.96 0 2.99.8 2.99 2.27 0 .4-.03.65-.21 1.53l-.46 2.7-.08.52-.07.4-.03.25zM29.1 19.14v-.4c0-.62-.4-.99-1.07-.99-.72 0-1.25.48-1.46 1.39zm1.07 4.57c-.75.22-1.5.33-2.32.33-2.53 0-3.85-1.21-3.85-3.47 0-2.63 1.67-4.57 3.96-4.57 1.88 0 3.06 1.1 3.06 2.78 0 .58-.07 1.13-.28 1.9h-4.5c-.03.14-.03.18-.03.25 0 .88.68 1.36 1.99 1.36.82 0 1.54-.15 2.36-.52zM50.45 17.94c-1.14 0-1.88 1.42-1.88 2.63 0 1.06.49 1.75 1.31 1.75.5 0 1.54-.69 1.75-1.9.04-.25.07-.58.07-.91 0-.81-.32-1.57-1.25-1.57zm-.85 6.17c-2.57 0-3.6-1.57-3.6-3.54 0-2.71 1.75-4.57 4.45-4.57 2.36 0 3.6 1.53 3.6 3.47 0 .48 0 .51-.07.95-.32 2.56-2.06 3.69-4.38 3.69z"/><path fill="#fefefe" d="M55.53 22.55h.15v-.11h-.15zm0 .29h-.14v-.51h.22c.07 0 .1 0 .14.04.03.03.07.07.07.11 0 .07-.04.14-.11.14l.11.22h-.14l-.07-.18h-.08zm.5-.26c0-.25-.17-.43-.42-.43-.25 0-.47.18-.47.43 0 .26.22.48.47.48.25 0 .42-.22.42-.48zm-.42-.58c.32 0 .57.26.57.58 0 .33-.25.63-.57.63-.32 0-.61-.3-.61-.63 0-.32.29-.58.61-.58zM15.87 23.46h-2.28l1.35-7.27-3.1 7.27H9.78l-.36-7.23-1.35 7.23H6L7.75 14h3.56l.18 5.85L13.98 14h3.67zM41.42 23.35c-.64.19-1.1.26-1.64.26-1.14 0-1.78-.58-1.78-1.68 0-.22.04-.44.07-.7l.14-.76.11-.59L39.35 14h2.25l-.32 1.75h1.17l-.32 1.87h-1.17l-.57 3.21c-.04.15-.07.26-.07.33 0 .4.25.59.78.59.25 0 .46-.04.61-.08z"/><path fill="#003473" d="M46.67 17.68l-.04-.26.43-1.2c-.11 0-.14 0-.18-.04-.11 0-.18-.03-.18-.03h-.21c-.75 0-1.29.32-2 1.24l.25-1.39h-2.35L41 23.71h2.24c.33-1.79.47-2.78.65-3.62.28-1.39 1.28-2.01 2.03-1.86.07 0 .14 0 .25.04l.14.07z"/><path fill="#fefefe" d="M47.88 15.15c-.18-.08-.21-.08-.25-.08-.11-.03-.18-.03-.18-.07h-.25c-.75 0-1.28.33-1.96 1.24l.22-1.17h-2.07L42 22.78h2.28c.82-4.71 1.14-5.55 2.25-5.55.07 0 .17.04.28.04l.25.07zM31.86 17.59c0 .95.53 1.65 1.74 2.12.93.41 1.07.52 1.07.88 0 .48-.43.7-1.32.7-.68 0-1.32-.11-2.07-.33L31 22.75h.11l.39.11c.14 0 .36.03.6.03.54.08.97.08 1.29.08 2.39 0 3.53-.81 3.53-2.56 0-1.06-.47-1.68-1.64-2.16-.97-.36-1.07-.47-1.07-.84 0-.4.39-.62 1.14-.62.43 0 1.07.04 1.64.11l.32-1.75a13.2 13.2 0 0 0-2-.15c-2.56 0-3.45 1.17-3.45 2.59M21.13 19.38c-1.28 0-1.92.41-1.92 1.17 0 .48.28.81.78.81.93 0 1.61-.81 1.64-1.94-.25-.04-.35-.04-.5-.04zm2.14 3.48h-1.85l.03-.81c-.57.62-1.35.92-2.38.92A1.98 1.98 0 0 1 17 20.88c0-1.86 1.46-2.96 3.99-2.96.25 0 .57 0 .93.04.07-.26.07-.37.07-.48 0-.51-.39-.69-1.46-.69-.64 0-1.36.07-1.85.18l-.33.11-.21.04.32-1.72c1.14-.29 1.85-.4 2.71-.4 1.96 0 2.96.77 2.96 2.23 0 .4-.04.69-.18 1.53l-.46 2.74-.08.48-.07.4-.03.26z"/><path fill="#fefefe" d="M29.95 18.14v-.4c0-.62-.39-.99-1.07-.99-.71 0-1.21.52-1.42 1.39zm1.21 4.57c-.78.22-1.53.33-2.31.33-2.53 0-3.85-1.21-3.85-3.47 0-2.63 1.67-4.57 3.96-4.57 1.85 0 3.02 1.1 3.02 2.78 0 .58-.07 1.13-.24 1.9h-4.53v.25c0 .88.64 1.36 1.96 1.36.82 0 1.57-.15 2.35-.48zM51.38 16.9c-1.14 0-1.85 1.39-1.85 2.63 0 1.02.5 1.72 1.28 1.72.5 0 1.57-.7 1.75-1.87.07-.29.07-.62.07-.95 0-.8-.32-1.53-1.25-1.53zm-.82 6.21c-2.53 0-3.56-1.57-3.56-3.54 0-2.71 1.75-4.57 4.45-4.57 2.36 0 3.6 1.53 3.6 3.47 0 .48 0 .51-.07.95-.35 2.56-2.1 3.69-4.42 3.69z"/></svg>