<svg xmlns="http://www.w3.org/2000/svg" width="67" height="72" viewBox="0 0 67 72"><defs><linearGradient id="a" x1="960" x2="960" y1="565" y2="637" gradientUnits="userSpaceOnUse"><stop offset="0" stop-color="#ffcd00"/><stop offset="1" stop-color="#e35205"/></linearGradient><linearGradient id="b" x1="962" x2="962" y1="589" y2="614" gradientUnits="userSpaceOnUse"><stop offset="0" stop-color="#ffcd00"/><stop offset="1" stop-color="#e35205"/></linearGradient></defs><path fill="url(#a)" d="M993.12 580.94l-.09-2.25-2.25-.23c-8.62-.88-16.03-4.09-20.73-6.63a53.66 53.66 0 0 1-8.29-5.41l-1.69-1.42-1.68 1.42c-.04.02-3.16 2.63-8.3 5.41-4.7 2.54-12.11 5.75-20.73 6.63l-2.25.23-.09 2.25c-.02.41-.38 10 3.32 21.62 2.19 6.85 5.34 13 9.38 18.26a52.36 52.36 0 0 0 19.23 15.47l1.12.54 1.12-.54a52.36 52.36 0 0 0 19.23-15.47 59.64 59.64 0 0 0 9.38-18.26 68.37 68.37 0 0 0 3.32-21.62zm-33.05 50.1a47.05 47.05 0 0 1-16.14-13.31 54.2 54.2 0 0 1-8.56-16.59 66.86 66.86 0 0 1-3.12-17.79 58.7 58.7 0 0 0 10.42-2.57 66.8 66.8 0 0 0 17.4-9.08 66.8 66.8 0 0 0 17.4 9.08 58.58 58.58 0 0 0 10.43 2.57 66.73 66.73 0 0 1-3.08 17.63 54.26 54.26 0 0 1-8.54 16.67 47.2 47.2 0 0 1-16.21 13.39z" transform="translate(-927 -565)"/><path fill="url(#b)" d="M974.71 589l-17.21 17.17-7.81-7.79-3.69 3.68 11.5 11.48 20.9-20.86z" transform="translate(-927 -565)"/></svg>