<?xml version="1.0" encoding="utf-8"?>
<!-- Generator: Adobe Illustrator 18.1.1, SVG Export Plug-In . SVG Version: 6.00 Build 0)  -->
<svg version="1.1" id="Laag_1" xmlns="http://www.w3.org/2000/svg" xmlns:xlink="http://www.w3.org/1999/xlink" x="0px" y="0px"
	 viewBox="0 0 67.8 67.8" enable-background="new 0 0 67.8 67.8" xml:space="preserve">
<g>
	<g>
		<path fill="#FFFFFF" d="M66.4,43.2c-5.2,18-23.9,28.4-41.9,23.2C6.6,61.3-3.8,42.5,1.3,24.5C6.5,6.6,25.2-3.8,43.2,1.3
			C61.2,6.5,71.6,25.2,66.4,43.2"/>
	</g>
	<g>
		<defs>
			<polygon id="SVGID_1_" points="33.9,33.9 66.4,43.2 46.5,26.9 			"/>
		</defs>
		<clipPath id="SVGID_2_">
			<use xlink:href="#SVGID_1_"  overflow="visible"/>
		</clipPath>
		<g clip-path="url(#SVGID_2_)">
			<g>
				<defs>
					
						<rect id="SVGID_3_" x="32.7" y="22" transform="matrix(-0.9614 -0.275 0.275 -0.9614 89.7772 81.2881)" width="35.8" height="24.6"/>
				</defs>
				<clipPath id="SVGID_4_">
					<use xlink:href="#SVGID_3_"  overflow="visible"/>
				</clipPath>
				
					<linearGradient id="SVGID_5_" gradientUnits="userSpaceOnUse" x1="-925.0477" y1="-503.8884" x2="-924.0477" y2="-503.8884" gradientTransform="matrix(12.9771 3.7121 3.7121 -12.9771 13923.1221 -3073.3137)">
					<stop  offset="0" style="stop-color:#DF2919"/>
					<stop  offset="0.6723" style="stop-color:#CD2818"/>
					<stop  offset="1" style="stop-color:#C22718"/>
				</linearGradient>
				<polygon clip-path="url(#SVGID_4_)" fill="url(#SVGID_5_)" points="36.8,17.6 71.2,27.4 64.4,51.1 30,41.3 				"/>
			</g>
		</g>
	</g>
	<polygon fill="#DF2A19" points="46.5,26.9 66.4,43.2 64.5,42.2 46.4,27.5 	"/>
	<polygon fill="#ED8560" points="33.9,33.9 46.5,26.9 46.4,27.5 35.1,33.7 	"/>
	<polygon fill="#BA2918" points="66.4,43.2 33.9,33.9 35.1,33.7 64.5,42.2 	"/>
	<polygon fill="#F5B9B4" points="33.9,33.9 46.5,26.9 43.2,1.3 	"/>
	<polygon fill="#D77685" points="43.2,1.3 33.9,33.9 34.6,33 43,3.6 	"/>
	<polygon fill="#DFA7A1" points="46.5,26.9 43.2,1.3 43,3.6 46,26.7 	"/>
	<polygon fill="#FADBD6" points="33.9,33.9 46.5,26.9 46,26.7 34.6,33 	"/>
	<polygon fill="#FFFFFF" points="40.8,46.5 24.5,66.4 25.6,64.5 40.3,46.4 	"/>
	<polygon fill="#FFFFFF" points="33.9,33.9 40.8,46.4 40.3,46.4 34,35.1 	"/>
	<polygon fill="#E7E3F1" points="24.5,66.4 33.9,33.9 34,35.1 25.6,64.5 	"/>
	<polygon fill="#293278" points="33.9,33.9 40.8,46.4 66.4,43.2 	"/>
	<polygon fill="#433C8A" points="66.4,43.2 33.9,33.9 34.8,34.6 64.2,43 	"/>
	<polygon fill="#272D66" points="40.8,46.5 66.4,43.2 64.2,43 41.1,46 	"/>
	<polygon fill="#9A90C1" points="33.9,33.9 40.8,46.4 41.1,46 34.8,34.6 	"/>
	<g>
		<defs>
			<polygon id="SVGID_6_" points="1.3,24.5 21.3,40.8 33.9,33.9 			"/>
		</defs>
		<clipPath id="SVGID_7_">
			<use xlink:href="#SVGID_6_"  overflow="visible"/>
		</clipPath>
		<g clip-path="url(#SVGID_7_)">
			<g>
				<defs>
					
						<rect id="SVGID_8_" x="0.3" y="21.1" transform="matrix(-0.9614 -0.275 0.275 -0.9614 26.5004 70.4148)" width="35.8" height="24.6"/>
				</defs>
				<clipPath id="SVGID_9_">
					<use xlink:href="#SVGID_8_"  overflow="visible"/>
				</clipPath>
				
					<linearGradient id="SVGID_10_" gradientUnits="userSpaceOnUse" x1="-925.0477" y1="-503.8884" x2="-924.0477" y2="-503.8884" gradientTransform="matrix(32.5692 9.3164 9.3164 -32.5692 34823.7617 -7762.8091)">
					<stop  offset="0" style="stop-color:#E7E3F1"/>
					<stop  offset="0.226" style="stop-color:#DAD5EA"/>
					<stop  offset="0.6618" style="stop-color:#B7AFD4"/>
					<stop  offset="1" style="stop-color:#998FC1"/>
				</linearGradient>
				<polygon clip-path="url(#SVGID_9_)" fill="url(#SVGID_10_)" points="4.4,16.6 38.8,26.5 32,50.1 -2.4,40.2 				"/>
			</g>
		</g>
	</g>
	<polygon fill="#C8C2E0" points="21.3,40.8 1.3,24.5 3.3,25.6 21.4,40.3 	"/>
	<polygon fill="#FFDD00" points="33.9,33.9 21.3,40.8 24.5,66.4 	"/>
	<polygon fill="#E1C285" points="24.5,66.4 33.9,33.9 33.1,34.8 24.7,64.2 	"/>
	<polygon fill="#EFC91B" points="21.3,40.8 24.5,66.4 24.7,64.2 21.8,41.1 	"/>
	<polygon fill="#DF2A19" points="33.9,33.9 26.9,21.3 43.2,1.3 	"/>
	<polygon fill="#E55232" points="26.9,21.3 43.2,1.3 42.2,3.3 27.5,21.4 	"/>
	<polygon fill="#D12A17" points="33.9,33.9 26.9,21.3 27.5,21.4 33.7,32.7 	"/>
	<polygon fill="#C22918" points="43.2,1.3 33.9,33.9 33.7,32.7 42.2,3.3 	"/>
	<polygon fill="#F9F8FC" points="33.9,33.9 26.9,21.3 1.3,24.5 	"/>
	<polygon fill="#E7E3F1" points="26.9,21.3 1.3,24.5 3.6,24.7 26.7,21.8 	"/>
	<g>
		<defs>
			<path id="SVGID_11_" d="M43.2,1.3l3.2,25.6l11.8-16.6C54.3,6.2,49.2,3,43.2,1.3z"/>
		</defs>
		<clipPath id="SVGID_12_">
			<use xlink:href="#SVGID_11_"  overflow="visible"/>
		</clipPath>
		<g clip-path="url(#SVGID_12_)">
			<g>
				<defs>
					
						<rect id="SVGID_13_" x="40" y="-0.6" transform="matrix(0.9659 0.2588 -0.2588 0.9659 5.28 -12.62)" width="21.1" height="28.6"/>
				</defs>
				<clipPath id="SVGID_14_">
					<use xlink:href="#SVGID_13_"  overflow="visible"/>
				</clipPath>
				
					<linearGradient id="SVGID_15_" gradientUnits="userSpaceOnUse" x1="-925.0477" y1="-503.8884" x2="-924.0477" y2="-503.8884" gradientTransform="matrix(-17.2083 -4.611 -4.611 17.2083 -18184.9961 4422.7261)">
					<stop  offset="0" style="stop-color:#7F74B0"/>
					<stop  offset="0.2187" style="stop-color:#9389BD"/>
					<stop  offset="0.7439" style="stop-color:#C1B9DB"/>
					<stop  offset="1" style="stop-color:#D2CCE6"/>
				</linearGradient>
				<polygon clip-path="url(#SVGID_14_)" fill="url(#SVGID_15_)" points="57.1,30.3 36.7,24.8 44.1,-2.8 64.5,2.7 				"/>
			</g>
		</g>
	</g>
	<g>
		<path fill="#9A90C1" d="M43.2,1.3l3.2,25.6l0.3-1.2l-3-24.2C43.5,1.4,43.4,1.4,43.2,1.3"/>
		<path fill="#B1A9D1" d="M57.9,10L46.8,25.7l-0.3,1.2l11.8-16.6C58.1,10.2,58,10.1,57.9,10"/>
	</g>
	<g>
		<defs>
			<path id="SVGID_16_" d="M43.2,1.3l0.6,1.1c5.3,1.7,9.9,4.6,13.6,8.3l0,0l0.9-0.4C54.3,6.2,49.2,3,43.2,1.3z"/>
		</defs>
		<clipPath id="SVGID_17_">
			<use xlink:href="#SVGID_16_"  overflow="visible"/>
		</clipPath>
		<g clip-path="url(#SVGID_17_)">
			<g>
				<defs>
					<rect id="SVGID_18_" x="42" y="-2.4" transform="matrix(0.866 0.5 -0.5 0.866 9.5545 -24.6746)" width="17.7" height="15.7"/>
				</defs>
				<clipPath id="SVGID_19_">
					<use xlink:href="#SVGID_18_"  overflow="visible"/>
				</clipPath>
				
					<linearGradient id="SVGID_20_" gradientUnits="userSpaceOnUse" x1="-925.0477" y1="-503.8884" x2="-924.0477" y2="-503.8884" gradientTransform="matrix(-15.468 -8.9305 -8.9305 15.468 -18749.6973 -457.169)">
					<stop  offset="0" style="stop-color:#7F74B0"/>
					<stop  offset="0.2187" style="stop-color:#9389BD"/>
					<stop  offset="0.7439" style="stop-color:#C1B9DB"/>
					<stop  offset="1" style="stop-color:#D2CCE6"/>
				</linearGradient>
				<polygon clip-path="url(#SVGID_19_)" fill="url(#SVGID_20_)" points="54.6,16.7 39.2,7.9 47.1,-5.7 62.4,3.1 				"/>
			</g>
		</g>
	</g>
	<g>
		<defs>
			<path id="SVGID_21_" d="M46.5,26.9l20.3-1.2c-1.4-5.8-4.4-11.1-8.5-15.3l0,0L46.5,26.9z"/>
		</defs>
		<clipPath id="SVGID_22_">
			<use xlink:href="#SVGID_21_"  overflow="visible"/>
		</clipPath>
		<g clip-path="url(#SVGID_22_)">
			<g>
				<defs>
					
						<rect id="SVGID_23_" x="44.6" y="6.5" transform="matrix(-0.5 -0.866 0.866 -0.5 68.4287 78.2984)" width="24.5" height="25.9"/>
				</defs>
				<clipPath id="SVGID_24_">
					<use xlink:href="#SVGID_23_"  overflow="visible"/>
				</clipPath>
				
					<linearGradient id="SVGID_25_" gradientUnits="userSpaceOnUse" x1="-925.0477" y1="-503.8884" x2="-924.0477" y2="-503.8884" gradientTransform="matrix(9.2455 16.0138 16.0138 -9.2455 16672.5156 10170.1309)">
					<stop  offset="0" style="stop-color:#DF2919"/>
					<stop  offset="0.368" style="stop-color:#CE2818"/>
					<stop  offset="1" style="stop-color:#AA2517"/>
				</linearGradient>
				<polygon clip-path="url(#SVGID_24_)" fill="url(#SVGID_25_)" points="61.9,2.3 74.1,23.5 51.7,36.5 39.5,15.2 				"/>
			</g>
		</g>
	</g>
	<g>
		<path fill="#E86A47" d="M58.3,10.3L46.5,26.9l0.9-0.5l11.2-15.7C58.5,10.6,58.4,10.5,58.3,10.3"/>
		<path fill="#AA2517" d="M66.6,25.2l-19.3,1.2l-0.9,0.5l20.3-1.2C66.7,25.5,66.7,25.4,66.6,25.2"/>
	</g>
	<g>
		<defs>
			<path id="SVGID_26_" d="M58,11.4c3.6,3.9,6.3,8.7,7.7,13.9l0,0l1,0.4c-1.4-5.8-4.4-11.1-8.5-15.3l0,0L58,11.4z"/>
		</defs>
		<clipPath id="SVGID_27_">
			<use xlink:href="#SVGID_26_"  overflow="visible"/>
		</clipPath>
		<g clip-path="url(#SVGID_27_)">
			<g>
				<defs>
					
						<rect id="SVGID_28_" x="53.1" y="9.8" transform="matrix(-0.5 -0.866 0.866 -0.5 77.8928 79.7226)" width="17.6" height="15.2"/>
				</defs>
				<clipPath id="SVGID_29_">
					<use xlink:href="#SVGID_28_"  overflow="visible"/>
				</clipPath>
				
					<linearGradient id="SVGID_30_" gradientUnits="userSpaceOnUse" x1="-925.0477" y1="-503.8884" x2="-924.0477" y2="-503.8884" gradientTransform="matrix(8.9307 15.4684 15.4684 -8.9307 16113.6279 9818.834)">
					<stop  offset="0" style="stop-color:#DF2919"/>
					<stop  offset="0.5744" style="stop-color:#BD2818"/>
					<stop  offset="1" style="stop-color:#A32617"/>
				</linearGradient>
				<polygon clip-path="url(#SVGID_29_)" fill="url(#SVGID_30_)" points="64.1,5.9 72.9,21.2 59.8,28.8 51,13.5 				"/>
			</g>
		</g>
	</g>
	<g>
		<defs>
			<path id="SVGID_31_" d="M46.5,26.9l20,16.3c1.7-5.9,1.7-11.9,0.3-17.5l0,0L46.5,26.9z"/>
		</defs>
		<clipPath id="SVGID_32_">
			<use xlink:href="#SVGID_31_"  overflow="visible"/>
		</clipPath>
		<g clip-path="url(#SVGID_32_)">
			<g>
				<defs>
					
						<rect id="SVGID_33_" x="44.6" y="21.7" transform="matrix(-0.342 -0.9397 0.9397 -0.342 43.1462 99.9052)" width="23.9" height="26.4"/>
				</defs>
				<clipPath id="SVGID_34_">
					<use xlink:href="#SVGID_33_"  overflow="visible"/>
				</clipPath>
				
					<linearGradient id="SVGID_35_" gradientUnits="userSpaceOnUse" x1="-925.0477" y1="-503.8884" x2="-924.0477" y2="-503.8884" gradientTransform="matrix(7.9061 21.722 21.722 -7.9061 18313.7852 16133.8916)">
					<stop  offset="0" style="stop-color:#F9F8FC"/>
					<stop  offset="0.4325" style="stop-color:#E6E2F1"/>
					<stop  offset="1" style="stop-color:#C8C1DF"/>
				</linearGradient>
				<polygon clip-path="url(#SVGID_34_)" fill="url(#SVGID_35_)" points="64.9,19.1 73,41.6 48.2,50.6 40.1,28.1 				"/>
			</g>
		</g>
	</g>
	<g>
		<path fill="#DED8EC" d="M66.8,25.7l-20.3,1.2l1.2,0.4l19.2-1.2C66.8,26,66.8,25.8,66.8,25.7"/>
		<path fill="#F9F8FC" d="M66.4,43.2c0-0.2,0.1-0.3,0.1-0.5L47.6,27.3l-1.2-0.4L66.4,43.2"/>
	</g>
	<g>
		<defs>
			<path id="SVGID_36_" d="M66,26.2c1.2,5.1,1.3,10.5-0.1,15.9l0,0l0.6,1.1c1.7-5.9,1.7-11.9,0.3-17.5l0,0L66,26.2z"/>
		</defs>
		<clipPath id="SVGID_37_">
			<use xlink:href="#SVGID_36_"  overflow="visible"/>
		</clipPath>
		<g clip-path="url(#SVGID_37_)">
			<g>
				<defs>
					
						<rect id="SVGID_38_" x="63.6" y="26.1" transform="matrix(-0.9613 -0.2756 0.2756 -0.9613 122.0312 86.7696)" width="7.1" height="17.5"/>
				</defs>
				<clipPath id="SVGID_39_">
					<use xlink:href="#SVGID_38_"  overflow="visible"/>
				</clipPath>
				
					<linearGradient id="SVGID_40_" gradientUnits="userSpaceOnUse" x1="-925.0477" y1="-503.8884" x2="-924.0477" y2="-503.8884" gradientTransform="matrix(5.2762 1.513 1.513 -5.2762 5707.2686 -1224.9805)">
					<stop  offset="0" style="stop-color:#FFFFFF"/>
					<stop  offset="0.2794" style="stop-color:#F4F2F9"/>
					<stop  offset="0.7993" style="stop-color:#D5D0E8"/>
					<stop  offset="1" style="stop-color:#C8C1DF"/>
				</linearGradient>
				<polygon clip-path="url(#SVGID_39_)" fill="url(#SVGID_40_)" points="66.1,25.4 72.9,27.4 68.1,44.2 61.3,42.2 				"/>
			</g>
		</g>
	</g>
	<g>
		<defs>
			<path id="SVGID_41_" d="M1.3,24.5l25.6-3.2L10.3,9.5C6.2,13.5,3,18.6,1.3,24.5"/>
		</defs>
		<clipPath id="SVGID_42_">
			<use xlink:href="#SVGID_41_"  overflow="visible"/>
		</clipPath>
		<g clip-path="url(#SVGID_42_)">
			<g>
				<defs>
					
						<rect id="SVGID_43_" x="-0.2" y="5.6" transform="matrix(-0.9614 -0.275 0.275 -0.9614 23.3077 35.9625)" width="28.7" height="21.5"/>
				</defs>
				<clipPath id="SVGID_44_">
					<use xlink:href="#SVGID_43_"  overflow="visible"/>
				</clipPath>
				
					<linearGradient id="SVGID_45_" gradientUnits="userSpaceOnUse" x1="-925.0477" y1="-503.8884" x2="-924.0477" y2="-503.8884" gradientTransform="matrix(21.537 6.1606 6.1606 -21.537 23031.8438 -5137.3643)">
					<stop  offset="0" style="stop-color:#FFF39E"/>
					<stop  offset="0.4636" style="stop-color:#FFE669"/>
					<stop  offset="1" style="stop-color:#FFD81C"/>
				</linearGradient>
				<polygon clip-path="url(#SVGID_44_)" fill="url(#SVGID_45_)" points="3.3,2.1 30.9,10 25,30.6 -2.6,22.7 				"/>
			</g>
		</g>
	</g>
	<g>
		<path fill="#FFCF00" d="M1.3,24.5l25.6-3.2L25.7,21l-24.2,3C1.4,24.2,1.4,24.4,1.3,24.5"/>
		<path fill="#FFDD00" d="M10,9.8L25.7,21l1.2,0.3L10.3,9.5C10.2,9.6,10.1,9.7,10,9.8"/>
		<path fill="#FFF9CE" d="M10.3,9.5c-4.1,4-7.3,9.1-9,15l1.1-0.6C4.1,18.6,7,14,10.8,10.4L10.3,9.5"/>
	</g>
	<g>
		<defs>
			<path id="SVGID_46_" d="M10.3,9.5l16.6,11.8L25.7,1C19.9,2.5,14.6,5.4,10.3,9.5"/>
		</defs>
		<clipPath id="SVGID_47_">
			<use xlink:href="#SVGID_46_"  overflow="visible"/>
		</clipPath>
		<g clip-path="url(#SVGID_47_)">
			<g>
				<defs>
					
						<rect id="SVGID_48_" x="7.3" y="-2.2" transform="matrix(-0.9397 -0.342 0.342 -0.9397 32.4321 26.0109)" width="22.5" height="24.7"/>
				</defs>
				<clipPath id="SVGID_49_">
					<use xlink:href="#SVGID_48_"  overflow="visible"/>
				</clipPath>
				
					<linearGradient id="SVGID_50_" gradientUnits="userSpaceOnUse" x1="-925.0477" y1="-503.8884" x2="-924.0477" y2="-503.8884" gradientTransform="matrix(19.3225 7.0328 7.0328 -19.3225 21429.3906 -3226.012)">
					<stop  offset="0" style="stop-color:#F3AB8B"/>
					<stop  offset="0.6871" style="stop-color:#E55232"/>
					<stop  offset="1" style="stop-color:#DF2919"/>
				</linearGradient>
				<polygon clip-path="url(#SVGID_49_)" fill="url(#SVGID_50_)" points="12.2,-5.3 33.3,2.4 24.9,25.6 3.7,17.9 				"/>
			</g>
		</g>
	</g>
	<g>
		<path fill="#DF2A19" d="M10.3,9.5l16.6,11.8l-0.5-0.9L10.7,9.2C10.6,9.3,10.5,9.4,10.3,9.5"/>
		<path fill="#DF2A19" d="M25.2,1.1l1.2,19.3l0.5,0.9L25.7,1C25.5,1,25.4,1.1,25.2,1.1"/>
	</g>
	<g>
		<defs>
			<path id="SVGID_51_" d="M10.3,9.5l1.1,0.2c3.9-3.6,8.7-6.3,13.9-7.7l0,0l0.4-1C19.9,2.5,14.6,5.4,10.3,9.5"/>
		</defs>
		<clipPath id="SVGID_52_">
			<use xlink:href="#SVGID_51_"  overflow="visible"/>
		</clipPath>
		<g clip-path="url(#SVGID_52_)">
			<g>
				<defs>
					<rect id="SVGID_53_" x="10.1" y="-2" transform="matrix(-0.866 0.5 -0.5 -0.866 38.1528 1.1119)" width="17.6" height="15.2"/>
				</defs>
				<clipPath id="SVGID_54_">
					<use xlink:href="#SVGID_53_"  overflow="visible"/>
				</clipPath>
				
					<linearGradient id="SVGID_55_" gradientUnits="userSpaceOnUse" x1="-925.0477" y1="-503.8884" x2="-924.0477" y2="-503.8884" gradientTransform="matrix(16.0141 -9.2457 -9.2457 -16.0141 10165.9463 -16612.0254)">
					<stop  offset="0" style="stop-color:#F3AB8B"/>
					<stop  offset="0.6871" style="stop-color:#E55232"/>
					<stop  offset="1" style="stop-color:#DF2919"/>
				</linearGradient>
				<polygon clip-path="url(#SVGID_54_)" fill="url(#SVGID_55_)" points="7.5,3.5 22.8,-5.3 30.4,7.9 15.1,16.7 				"/>
			</g>
		</g>
	</g>
	<g>
		<defs>
			<path id="SVGID_56_" d="M33.7,0c-2.7,0-5.4,0.4-8,1l0,0l1.2,20.3l16.3-20C40.2,0.4,37.1,0,34,0l0,0H33.7z"/>
		</defs>
		<clipPath id="SVGID_57_">
			<use xlink:href="#SVGID_56_"  overflow="visible"/>
		</clipPath>
		<g clip-path="url(#SVGID_57_)">
			<g>
				<defs>
					
						<rect id="SVGID_58_" x="23.3" y="-2.6" transform="matrix(-0.9614 -0.275 0.275 -0.9614 65.259 29.214)" width="22.7" height="25.3"/>
				</defs>
				<clipPath id="SVGID_59_">
					<use xlink:href="#SVGID_58_"  overflow="visible"/>
				</clipPath>
				
					<linearGradient id="SVGID_60_" gradientUnits="userSpaceOnUse" x1="-925.0477" y1="-503.8884" x2="-924.0477" y2="-503.8884" gradientTransform="matrix(16.2888 4.6594 4.6594 -16.2888 17440.4629 -3889.9175)">
					<stop  offset="0" style="stop-color:#4260A6"/>
					<stop  offset="0.4485" style="stop-color:#344B8F"/>
					<stop  offset="1" style="stop-color:#24377A"/>
				</linearGradient>
				<polygon clip-path="url(#SVGID_59_)" fill="url(#SVGID_60_)" points="27.2,-5.3 49.1,1 42.1,25.3 20.3,19.1 				"/>
			</g>
		</g>
	</g>
	<g>
		<path fill="#243882" d="M25.7,1l1.2,20.3l0.4-1.2L26.1,0.9C26,0.9,25.8,1,25.7,1"/>
		<path fill="#2B2D75" d="M43.2,1.3c-0.2,0-0.3-0.1-0.5-0.1L27.3,20.1l-0.4,1.2L43.2,1.3C43.2,1.3,43.2,1.3,43.2,1.3"/>
	</g>
	<g>
		<defs>
			<path id="SVGID_61_" d="M33.7,0c-2.7,0-5.4,0.4-8,1l0,0l0.5,0.8C31.3,0.6,36.7,0.6,42.1,2l0,0l1.1-0.6C40.2,0.4,37.1,0,34,0l0,0
				H33.7z"/>
		</defs>
		<clipPath id="SVGID_62_">
			<use xlink:href="#SVGID_61_"  overflow="visible"/>
		</clipPath>
		<g clip-path="url(#SVGID_62_)">
			<g>
				<defs>
					<rect id="SVGID_63_" x="26.1" y="-0.5" width="17.5" height="2"/>
				</defs>
				<clipPath id="SVGID_64_">
					<use xlink:href="#SVGID_63_"  overflow="visible"/>
				</clipPath>
				
					<linearGradient id="SVGID_65_" gradientUnits="userSpaceOnUse" x1="-925.0477" y1="-503.8884" x2="-924.0477" y2="-503.8884" gradientTransform="matrix(17.5326 0 0 -17.5326 16244.8604 -8833.9961)">
					<stop  offset="0" style="stop-color:#4260A6"/>
					<stop  offset="4.460812e-02" style="stop-color:#3F5BA1"/>
					<stop  offset="0.2605" style="stop-color:#334A8E"/>
					<stop  offset="0.4859" style="stop-color:#2C3F82"/>
					<stop  offset="0.7248" style="stop-color:#26397C"/>
					<stop  offset="1" style="stop-color:#24377A"/>
				</linearGradient>
				<rect x="26.1" y="-0.5" clip-path="url(#SVGID_64_)" fill="url(#SVGID_65_)" width="17.5" height="2"/>
			</g>
		</g>
	</g>
	<g>
		<path fill="#293278" d="M9.5,57.4c4,4.1,9.1,7.3,15,9l-3.2-25.6L9.5,57.4"/>
		<path fill="#272D66" d="M24.5,66.4l-3.2-25.6L21,42.1l3,24.2C24.2,66.3,24.4,66.4,24.5,66.4"/>
		<path fill="#5A4F97" d="M9.8,57.7L21,42.1l0.3-1.2L9.5,57.4C9.6,57.5,9.7,57.6,9.8,57.7"/>
	</g>
	<g>
		<defs>
			<path id="SVGID_66_" d="M9.5,57.4c4,4.1,9.1,7.3,15,9l0,0l-0.6-1.1c-5.3-1.7-9.9-4.6-13.6-8.3l0,0L9.5,57.4z"/>
		</defs>
		<clipPath id="SVGID_67_">
			<use xlink:href="#SVGID_66_"  overflow="visible"/>
		</clipPath>
		<g clip-path="url(#SVGID_67_)">
			<g>
				<defs>
					
						<rect id="SVGID_68_" x="7.9" y="55.2" transform="matrix(-0.9613 -0.2756 0.2756 -0.9613 15.1736 125.721)" width="17.1" height="13.2"/>
				</defs>
				<clipPath id="SVGID_69_">
					<use xlink:href="#SVGID_68_"  overflow="visible"/>
				</clipPath>
				
					<linearGradient id="SVGID_70_" gradientUnits="userSpaceOnUse" x1="-925.0477" y1="-503.8884" x2="-924.0477" y2="-503.8884" gradientTransform="matrix(16.5984 4.7595 4.7595 -16.5984 17761.1621 -3901.5808)">
					<stop  offset="0" style="stop-color:#5B5E9D"/>
					<stop  offset="4.492855e-02" style="stop-color:#555999"/>
					<stop  offset="0.2675" style="stop-color:#404788"/>
					<stop  offset="0.4972" style="stop-color:#323C7D"/>
					<stop  offset="0.7363" style="stop-color:#293777"/>
					<stop  offset="1" style="stop-color:#253575"/>
				</linearGradient>
				<polygon clip-path="url(#SVGID_69_)" fill="url(#SVGID_70_)" points="10,53.1 26.4,57.8 22.8,70.5 6.4,65.8 				"/>
			</g>
		</g>
	</g>
	<g>
		<defs>
			<path id="SVGID_71_" d="M1,42.1c1.4,5.8,4.4,11.1,8.5,15.3l0,0l11.8-16.6L1,42.1z"/>
		</defs>
		<clipPath id="SVGID_72_">
			<use xlink:href="#SVGID_71_"  overflow="visible"/>
		</clipPath>
		<g clip-path="url(#SVGID_72_)">
			<g>
				<defs>
					
						<rect id="SVGID_73_" x="2.2" y="39.2" transform="matrix(-8.715209e-02 -0.9962 0.9962 -8.715209e-02 -37.4907 65.6698)" width="18.3" height="21.7"/>
				</defs>
				<clipPath id="SVGID_74_">
					<use xlink:href="#SVGID_73_"  overflow="visible"/>
				</clipPath>
				
					<linearGradient id="SVGID_75_" gradientUnits="userSpaceOnUse" x1="-925.0477" y1="-503.8884" x2="-924.0477" y2="-503.8884" gradientTransform="matrix(1.4796 16.9125 16.9125 -1.4796 9902.0479 14941.2002)">
					<stop  offset="0" style="stop-color:#FFFFFF"/>
					<stop  offset="0.6171" style="stop-color:#F1EFF8"/>
					<stop  offset="1" style="stop-color:#E5E2F1"/>
				</linearGradient>
				<polygon clip-path="url(#SVGID_74_)" fill="url(#SVGID_75_)" points="21.3,40 22.9,58.2 1.3,60.1 -0.2,41.9 				"/>
			</g>
		</g>
	</g>
	<g>
		<path fill="#BDB5D9" d="M9.5,57.4l11.8-16.6l-0.9,0.5L9.2,57.1C9.3,57.2,9.4,57.3,9.5,57.4"/>
		<path fill="#E5E1F1" d="M1.1,42.5l19.3-1.2l0.9-0.5L1,42.1C1,42.2,1.1,42.4,1.1,42.5"/>
	</g>
	<g>
		<defs>
			<path id="SVGID_76_" d="M1,42.1c1.4,5.8,4.4,11.1,8.5,15.3l0,0l0.2-1.1C6.1,52.4,3.4,47.6,2,42.5l0,0L1,42.1z"/>
		</defs>
		<clipPath id="SVGID_77_">
			<use xlink:href="#SVGID_76_"  overflow="visible"/>
		</clipPath>
		<g clip-path="url(#SVGID_77_)">
			<g>
				<defs>
					
						<rect id="SVGID_78_" x="-2.2" y="41.4" transform="matrix(-0.9613 -0.2756 0.2756 -0.9613 -5.6625 99.1451)" width="12.6" height="17.1"/>
				</defs>
				<clipPath id="SVGID_79_">
					<use xlink:href="#SVGID_78_"  overflow="visible"/>
				</clipPath>
				
					<linearGradient id="SVGID_80_" gradientUnits="userSpaceOnUse" x1="-925.0477" y1="-503.8884" x2="-924.0477" y2="-503.8884" gradientTransform="matrix(12.2324 3.5076 3.5076 -12.2324 13081.2168 -2870.7861)">
					<stop  offset="0" style="stop-color:#FFFFFF"/>
					<stop  offset="0.4436" style="stop-color:#F3F1F9"/>
					<stop  offset="1" style="stop-color:#DED9ED"/>
				</linearGradient>
				<polygon clip-path="url(#SVGID_79_)" fill="url(#SVGID_80_)" points="0.4,40 12.6,43.5 7.8,59.9 -4.3,56.5 				"/>
			</g>
		</g>
	</g>
	<g>
		<path fill="#DF2A19" d="M21.3,40.8L1,42.1c-1.4-5.6-1.4-11.6,0.3-17.5L21.3,40.8"/>
		<path fill="#C92A18" d="M1,42.1l20.3-1.2l-1.2-0.4L0.9,41.6C0.9,41.8,1,41.9,1,42.1"/>
		<path fill="#E86A47" d="M1.3,24.5c0,0.2-0.1,0.3-0.1,0.5l18.9,15.4l1.2,0.4L1.3,24.5L1.3,24.5"/>
		<path fill="#E86A47" d="M2,25.6C0.6,31,0.6,36.5,1.8,41.6L1,42.1c-1.4-5.6-1.4-11.6,0.3-17.5L2,25.6"/>
	</g>
	<g>
		<defs>
			<path id="SVGID_81_" d="M40.9,46.5l16.6,11.8c4.1-4,7.3-9.1,9-15l0,0L40.9,46.5z"/>
		</defs>
		<clipPath id="SVGID_82_">
			<use xlink:href="#SVGID_81_"  overflow="visible"/>
		</clipPath>
		<g clip-path="url(#SVGID_82_)">
			<g>
				<defs>
					
						<rect id="SVGID_83_" x="39" y="39.7" transform="matrix(-0.9614 -0.275 0.275 -0.9614 90.7415 113.49)" width="28.7" height="21.5"/>
				</defs>
				<clipPath id="SVGID_84_">
					<use xlink:href="#SVGID_83_"  overflow="visible"/>
				</clipPath>
				
					<linearGradient id="SVGID_85_" gradientUnits="userSpaceOnUse" x1="-925.0477" y1="-503.8884" x2="-924.0477" y2="-503.8884" gradientTransform="matrix(22.8031 6.5228 6.5228 -22.8031 24422.5996 -5411.623)">
					<stop  offset="0" style="stop-color:#DED9ED"/>
					<stop  offset="0.2396" style="stop-color:#CBC4E1"/>
					<stop  offset="0.7358" style="stop-color:#9A91C2"/>
					<stop  offset="1" style="stop-color:#7F74B0"/>
				</linearGradient>
				<polygon clip-path="url(#SVGID_84_)" fill="url(#SVGID_85_)" points="42.5,36.1 70.1,44 64.2,64.7 36.6,56.8 				"/>
			</g>
		</g>
	</g>
	<g>
		<path fill="#8075B1" d="M66.4,43.2l-25.6,3.2l1.2,0.3l24.2-3C66.3,43.5,66.4,43.4,66.4,43.2"/>
		<path fill="#DED8EC" d="M57.7,57.9L42.1,46.8l-1.2-0.3l16.6,11.8C57.5,58.1,57.6,58,57.7,57.9"/>
		<path fill="#665A9F" d="M57.4,58.3c4.1-4,7.3-9.1,9-15l-1.1,0.6c-1.7,5.3-4.6,9.9-8.3,13.6L57.4,58.3"/>
	</g>
	<g>
		<defs>
			<path id="SVGID_86_" d="M40.9,46.5l1.2,20.3c5.8-1.4,11.1-4.4,15.3-8.5l0,0L40.9,46.5z"/>
		</defs>
		<clipPath id="SVGID_87_">
			<use xlink:href="#SVGID_86_"  overflow="visible"/>
		</clipPath>
		<g clip-path="url(#SVGID_87_)">
			<g>
				<defs>
					
						<rect id="SVGID_88_" x="35.6" y="43.5" transform="matrix(-0.5 -0.866 0.866 -0.5 24.5554 125.6671)" width="25.9" height="24.5"/>
				</defs>
				<clipPath id="SVGID_89_">
					<use xlink:href="#SVGID_88_"  overflow="visible"/>
				</clipPath>
				
					<linearGradient id="SVGID_90_" gradientUnits="userSpaceOnUse" x1="-925.0477" y1="-503.8884" x2="-924.0477" y2="-503.8884" gradientTransform="matrix(10.4459 18.0927 18.0927 -10.4459 18819.6172 11518.665)">
					<stop  offset="0" style="stop-color:#DF2919"/>
					<stop  offset="0.6139" style="stop-color:#C42818"/>
					<stop  offset="1" style="stop-color:#B22718"/>
				</linearGradient>
				<polygon clip-path="url(#SVGID_89_)" fill="url(#SVGID_90_)" points="52.7,38.4 65.6,60.8 44.4,73.1 31.5,50.7 				"/>
			</g>
		</g>
	</g>
	<g>
		<path fill="#DF2A19" d="M57.4,58.3L40.8,46.5l0.5,0.9l15.7,11.2C57.2,58.5,57.3,58.4,57.4,58.3"/>
		<path fill="#DF2A19" d="M42.5,66.6l-1.2-19.3l-0.5-0.9l1.2,20.3C42.2,66.7,42.4,66.7,42.5,66.6"/>
	</g>
	<g>
		<defs>
			<path id="SVGID_91_" d="M42.5,65.7l-0.4,1c5.8-1.4,11.1-4.4,15.3-8.5l0,0L56.3,58C52.4,61.7,47.6,64.3,42.5,65.7"/>
		</defs>
		<clipPath id="SVGID_92_">
			<use xlink:href="#SVGID_91_"  overflow="visible"/>
		</clipPath>
		<g clip-path="url(#SVGID_92_)">
			<g>
				<defs>
					
						<rect id="SVGID_93_" x="40.8" y="55.5" transform="matrix(-0.866 0.5 -0.5 -0.866 124.0959 93.0314)" width="17.6" height="15.2"/>
				</defs>
				<clipPath id="SVGID_94_">
					<use xlink:href="#SVGID_93_"  overflow="visible"/>
				</clipPath>
				
					<linearGradient id="SVGID_95_" gradientUnits="userSpaceOnUse" x1="-925.0477" y1="-503.8884" x2="-924.0477" y2="-503.8884" gradientTransform="matrix(16.0143 -9.2459 -9.2459 -16.0143 10196.8311 -16554.3203)">
					<stop  offset="0" style="stop-color:#DF2919"/>
					<stop  offset="0.5744" style="stop-color:#BD2818"/>
					<stop  offset="1" style="stop-color:#A32617"/>
				</linearGradient>
				<polygon clip-path="url(#SVGID_94_)" fill="url(#SVGID_95_)" points="38.1,61 53.4,52.1 61,65.3 45.7,74.1 				"/>
			</g>
		</g>
	</g>
	<g>
		<defs>
			<path id="SVGID_96_" d="M24.5,66.4c5.9,1.7,11.9,1.7,17.5,0.3l0,0l-1.2-20.3L24.5,66.4z"/>
		</defs>
		<clipPath id="SVGID_97_">
			<use xlink:href="#SVGID_96_"  overflow="visible"/>
		</clipPath>
		<g clip-path="url(#SVGID_97_)">
			<g>
				<defs>
					
						<rect id="SVGID_98_" x="19.5" y="43.4" transform="matrix(-0.7071 -0.7071 0.7071 -0.7071 16.4317 121.3973)" width="27.7" height="27.7"/>
				</defs>
				<clipPath id="SVGID_99_">
					<use xlink:href="#SVGID_98_"  overflow="visible"/>
				</clipPath>
				
					<linearGradient id="SVGID_100_" gradientUnits="userSpaceOnUse" x1="-925.0477" y1="-503.8884" x2="-924.0477" y2="-503.8884" gradientTransform="matrix(11.4434 11.4434 11.4434 -11.4434 16383.6104 4874.9146)">
					<stop  offset="0" style="stop-color:#F5BBB6"/>
					<stop  offset="0.2358" style="stop-color:#F4B4B2"/>
					<stop  offset="0.6006" style="stop-color:#F1A2A7"/>
					<stop  offset="1" style="stop-color:#ED8696"/>
				</linearGradient>
				<polygon clip-path="url(#SVGID_99_)" fill="url(#SVGID_100_)" points="33.4,37.7 53,57.3 33.4,76.9 13.7,57.3 				"/>
			</g>
		</g>
	</g>
	<g>
		<path fill="#F5B9B4" d="M42.1,66.8l-1.2-20.3l-0.4,1.2l1.2,19.2C41.8,66.8,41.9,66.8,42.1,66.8"/>
		<path fill="#FBE1DE" d="M24.5,66.4c0.2,0,0.3,0.1,0.5,0.1l15.4-18.9l0.4-1.2L24.5,66.4"/>
	</g>
	<g>
		<defs>
			<path id="SVGID_101_" d="M24.5,66.4c5.9,1.7,11.9,1.7,17.5,0.3l0,0l-0.5-0.8c-5.1,1.2-10.5,1.3-15.9-0.1l0,0L24.5,66.4z"/>
		</defs>
		<clipPath id="SVGID_102_">
			<use xlink:href="#SVGID_101_"  overflow="visible"/>
		</clipPath>
		<g clip-path="url(#SVGID_102_)">
			<g>
				<defs>
					<rect id="SVGID_103_" x="25" y="65.3" width="17.5" height="2.3"/>
				</defs>
				<clipPath id="SVGID_104_">
					<use xlink:href="#SVGID_103_"  overflow="visible"/>
				</clipPath>
				
					<linearGradient id="SVGID_105_" gradientUnits="userSpaceOnUse" x1="-925.0477" y1="-503.8884" x2="-924.0477" y2="-503.8884" gradientTransform="matrix(17.5326 0 0 -17.5326 16243.7305 -8768.2021)">
					<stop  offset="0" style="stop-color:#F5BBB6"/>
					<stop  offset="0.2978" style="stop-color:#F2ABAC"/>
					<stop  offset="0.8971" style="stop-color:#EC8193"/>
					<stop  offset="1" style="stop-color:#EA788F"/>
				</linearGradient>
				<rect x="25" y="65.3" clip-path="url(#SVGID_104_)" fill="url(#SVGID_105_)" width="17.5" height="2.3"/>
			</g>
		</g>
	</g>
</g>
</svg>
