<?xml version="1.0" encoding="utf-8"?>
<!-- Generator: Adobe Illustrator 18.1.1, SVG Export Plug-In . SVG Version: 6.00 Build 0)  -->
<svg version="1.1" id="Laag_1" xmlns="http://www.w3.org/2000/svg" xmlns:xlink="http://www.w3.org/1999/xlink" x="0px" y="0px"
	 viewBox="-921 502 77 77" enable-background="new -921 502 77 77" xml:space="preserve">
<g id="Symbols">
	<g id="Oval">
		
			<linearGradient id="SVGID_1_" gradientUnits="userSpaceOnUse" x1="-1828.7153" y1="1073.0486" x2="-1828.7153" y2="1074.0486" gradientTransform="matrix(72 0 0 -72 130785 77836)">
			<stop  offset="0" style="stop-color:#E35205"/>
			<stop  offset="1" style="stop-color:#FFCD00"/>
		</linearGradient>
		<circle fill="none" stroke="url(#SVGID_1_)" stroke-width="5" cx="-882.5" cy="540.5" r="36"/>
	</g>
</g>
<linearGradient id="SVGID_2_" gradientUnits="userSpaceOnUse" x1="311.4598" y1="-35.42" x2="311.4598" y2="-10" gradientTransform="matrix(1 0 0 -1 -1193.5 519.5)">
	<stop  offset="0" style="stop-color:#E35205"/>
	<stop  offset="1" style="stop-color:#FFCD00"/>
</linearGradient>
<path fill="url(#SVGID_2_)" d="M-889.8,531.3c0.1-0.5,0.4-0.9,0.9-1.1c0.6-0.3,1.2-0.2,1.8,0.3l2.8,2.5v0.3h-3.8
	c-0.9,0-1.6-0.7-1.6-1.6C-889.9,531.6-889.9,531.5-889.8,531.3z M-876.9,530.6c0.6-0.6,1.6-0.6,2.3,0c0.3,0.3,0.5,0.8,0.4,1.2
	c-0.1,0.8-0.8,1.5-1.7,1.5h-3.7v-0.3l0,0L-876.9,530.6L-876.9,530.6z M-873,533.3c0.2-0.4,0.4-0.8,0.4-1.3c0.2-1.8-1.1-3.4-2.8-3.6
	c-0.9-0.1-1.9,0.2-2.5,0.8l-2.3,2.1c-0.9-1-2.5-1.1-3.4-0.2c-0.1,0-0.1,0.1-0.2,0.2l-2.3-2.1c-1.3-1.2-3.3-1.1-4.5,0.2
	c-0.6,0.7-0.9,1.6-0.8,2.5c0.1,0.5,0.2,0.9,0.4,1.3h-1.8c-0.9,0-1.6,0.7-1.6,1.6v2.4c0,0.5,0.4,0.8,0.8,0.8h23.3
	c0.4,0,0.8-0.4,0.8-0.8V535c0-0.9-0.7-1.6-1.6-1.6H-873z"/>
<linearGradient id="SVGID_3_" gradientUnits="userSpaceOnUse" x1="304.605" y1="-34" x2="304.605" y2="-8.35" gradientTransform="matrix(1 0 0 -1 -1193.5 519.5)">
	<stop  offset="0" style="stop-color:#E35205"/>
	<stop  offset="1" style="stop-color:#FFCD00"/>
</linearGradient>
<path fill="url(#SVGID_3_)" d="M-893.5,551.5c0,0.9,0.7,1.6,1.6,1.6h7.6v-13.6h-9.2V551.5"/>
<linearGradient id="SVGID_4_" gradientUnits="userSpaceOnUse" x1="317.605" y1="-34" x2="317.605" y2="-8.35" gradientTransform="matrix(1 0 0 -1 -1193.5 519.5)">
	<stop  offset="0" style="stop-color:#E35205"/>
	<stop  offset="1" style="stop-color:#FFCD00"/>
</linearGradient>
<path fill="url(#SVGID_4_)" d="M-880.5,553.1h7.6c0.9,0,1.6-0.7,1.6-1.6v-12h-9.2V553.1"/>
</svg>
