<svg xmlns="http://www.w3.org/2000/svg" width="86" height="39" viewBox="0 0 86 39"><path fill="#fff" d="M76.69 1H6.37A6.47 6.47 0 0 0 0 7.53v24.76c0 3.6 2.86 6.54 6.37 6.54h70.32z"/><path fill="#fff" d="M43.6 3H5.65A3.68 3.68 0 0 0 2 6.74v24.81a3.68 3.68 0 0 0 3.65 3.74H43.6z"/><path fill="#003a7d" d="M79 0H6.37A6.47 6.47 0 0 0 0 6.53v24.81c0 3.6 2.86 6.53 6.37 6.53H79a6.46 6.46 0 0 0 6.37-6.53V6.53A6.47 6.47 0 0 0 79 0zM2.72 31.34V6.53a3.68 3.68 0 0 1 3.65-3.74h37.96v32.29H6.37a3.7 3.7 0 0 1-3.65-3.74z"/><path fill="#fff" d="M52.13 21.39c-1.07 0-1.94-1.05-1.94-2.42 0-1.42.78-2.46 1.94-2.46 1.24-.05 1.93 1.04 1.93 2.32 0 1.51-.73 2.56-1.93 2.56zm-1.94 6.06v-5.12h.04c.6 1.14 1.8 1.56 2.91 1.56 2.73 0 4.2-2.32 4.2-5.11 0-2.27-1.38-4.78-3.92-4.78-1.43 0-2.82.62-3.42 1.94h-.04v-1.7H47v13.21zM63.89 19.4c.47 0 .93.04 1.34.04 0 1.09-.74 2.23-1.98 2.23-.74 0-1.29-.38-1.29-1.04 0-.9.83-1.23 1.93-1.23zm4.48 4.21v.05zm-.18-2.18v-3.5c0-2.89-2.03-3.93-4.39-3.93a9.4 9.4 0 0 0-3.69.66l.04 2.23c.88-.52 1.9-.71 2.96-.71 1.15 0 2.08.33 2.12 1.61-.41-.1-.97-.14-1.47-.14-1.71 0-4.76.33-4.76 3.21 0 2.04 1.62 2.99 3.46 2.99a3.1 3.1 0 0 0 2.91-1.71h.05c0 .48.04 1 .09 1.47h2.85c-.13-.74-.17-1.44-.17-2.18zM69.65 27.26c.64.14 1.29.23 1.98.23 2.91 0 3.6-2.32 4.53-4.68L79.53 14h-3.19l-1.89 6.15h-.05L72.42 14H69l3.74 9.66c-.23.85-.83 1.32-1.62 1.32a3.4 3.4 0 0 1-1.24-.19z"/><path fill="#ed1c24" d="M12.08 16.51c1.43 0 2.03 1.18 2.03 2.22 0 1.47-.92 2.42-2.03 2.42-.97.05-1.8-.81-1.8-2.27 0-1.28.6-2.37 1.8-2.37zm2.26-2.27v1.7h-.04c-.7-1.18-1.76-1.94-3.14-1.94C8.29 14 7 16.08 7 18.92c0 2.8 1.57 4.74 4.11 4.74 1.29 0 2.35-.52 3.09-1.61h.05v.52c0 1.85-.97 2.74-2.82 2.74a6.28 6.28 0 0 1-3.09-.75l-.14 2.55a9.9 9.9 0 0 0 3.51.62c3.74 0 5.54-1.23 5.54-5.11v-8.38zM22.19 11H19v2.41h3.19zM19 14.93h3.19v9.47H19zM31.74 14.09c-.32-.04-.69-.09-1.06-.09-1.39 0-2.17.76-2.72 1.94h-.05v-1.75H25v9.47h3.19v-3.98c0-1.85.83-2.93 2.3-2.93.37 0 .74 0 1.07.09z"/><path fill="#ed1c24" d="M34.28 18.97c0-1.42.6-2.65 2.08-2.65 1.47 0 2.07 1.23 2.07 2.65-.04 1.42-.64 2.65-2.07 2.65-1.48 0-2.08-1.23-2.08-2.65zm7.43 0c0-3.12-2.31-4.97-5.35-4.97-3.05 0-5.36 1.8-5.36 4.97-.05 3.13 2.31 4.92 5.36 4.92 3.04 0 5.35-1.79 5.35-4.92z"/></svg>