<svg xmlns="http://www.w3.org/2000/svg" width="62" height="38" viewBox="0 0 62 38"><path fill="#114371" d="M55.41 17.12l.34-2.12h-.48L55 16.67c.14.13.27.28.41.45M3.58 23.97L5.04 15h-.48L3 24.57h1.94l.09-.6z"/><path fill="#fcb719" d="M31 32.57a17.9 17.9 0 0 0 12.25 4.84c10.07 0 18.24-8.37 18.24-18.7C61.49 8.37 53.32 0 43.25 0 38.54 0 34.24 1.83 31 4.84c-3.68 3.42-6 8.36-6 13.87 0 5.49 2.32 10.44 6 13.86"/><path fill="#ee3f23" d="M36.4 16.72c-.07-.66-.18-1.33-.31-1.98H24.91c.14-.67.32-1.33.53-1.98h10.12c-.22-.68-.48-1.34-.78-1.98h-8.56c.31-.68.66-1.35 1.05-1.97h6.46a18.6 18.6 0 0 0-1.39-1.99h-3.68c.56-.7 1.17-1.37 1.83-1.98A17.9 17.9 0 0 0 18.24 0C8.17 0 0 8.37 0 18.71c0 10.33 8.17 18.7 18.24 18.7 4.72 0 9.02-1.82 12.25-4.84.67-.6 1.29-1.27 1.85-1.98h-3.68c-.5-.62-.97-1.28-1.39-1.98h6.46c.39-.63.74-1.29 1.05-1.98h-8.56c-.3-.64-.56-1.3-.78-1.97h10.12c.21-.65.38-1.33.53-1.98a18.49 18.49 0 0 0 .31-5.96"/><path fill="#114371" d="M30 18.99c0-.62-.35-.99-.94-.99-.46 0-.82.26-1.06.74.17-.09.35-.14.55-.14.53 0 .86.27.92.78h.51l.02-.39M28.02 21c-.02.12-.02.18-.02.25l.03.36h3.49l.12-.61z"/><path fill="#114371" d="M28.8 24.39c-2.22 0-3.37-1.18-3.37-3.45 0-1.14.27-2.15.75-2.94A5.31 5.31 0 0 0 25 21.54c0 2.27 1.28 3.46 3.36 3.46.7 0 1.36-.11 2.03-.32l.08-.5c-.55.15-1.1.21-1.67.21M40.87 16c-.77 0-1.42.4-1.87 1.07.38-.31.82-.47 1.32-.47.55 0 1.06.16 1.77.51l.13-.78a3.2 3.2 0 0 0-1.35-.33"/><path fill="#114371" d="M40.02 24c-2.13 0-3.45-1.58-3.45-4.11 0-2.17.74-3.91 1.96-4.89-.52.29-.93.63-1.38 1.12l-.23-.07-.15.28a8.26 8.26 0 0 0-.61 1.96l-.14-.01c-.48 0-.76.21-1.02 1 .2-.21.44-.26.72-.26h.33c-.07.47-.1.95-.1 1.44.02 2.51 1.4 4.13 3.53 4.13.55 0 1.03-.08 1.76-.29l.07-.47c-.49.11-.87.17-1.29.17M31.5 24.11L32.62 17h-.42L31 24.71h1.99l.08-.6zM56.21 19.5c0-.98-.37-1.5-1.06-1.5-.47 0-.87.29-1.15.8.2-.14.42-.21.65-.21.69 0 1.05.54 1.05 1.51a3.9 3.9 0 0 1-.38 1.79c.53-.4.89-1.27.89-2.39M48.5 24.11L49.62 17h-.42L48 24.71h1.98c.02-.21.06-.41.09-.6z"/><path fill="#114371" d="M56.22 23.79l.09-.76c-.54.59-1.1.86-1.83.86-1.44 0-2.39-1.28-2.39-3.21 0-1.46.48-2.8 1.22-3.68-.44.31-.8.74-1.08 1.26h-.14c-.52 0-.82.25-1.09 1.28.27-.41.57-.52.91-.54a7.06 7.06 0 0 0-.36 2.27c0 1.95.98 3.21 2.43 3.21.73 0 1.28-.26 1.83-.86l-.1.76h1.87l.1-.59zM7.02 20.27L8.74 15h-.37L7 19.18zM8.5 24.3L9.64 17l-.75 2.15L8 24.89h1.98l.1-.59zM5.62 24.25L5.46 17 5 19.76l.12 5.08h1.35l.21-.59zM11.46 18.73a5.92 5.92 0 0 1 1.64-.22c.83 0 1.19.15 1.26.56l.43.04c.07-.25.09-.36.09-.49 0-.52-.35-.71-1.27-.71-.57 0-1.21.1-1.65.22l-.27.09-.18.03.2-1.25-.43.12-.28 1.73.18-.04zM15.08 21.05c-.2-.03-.3-.05-.44-.05-.92 0-1.47.28-1.64.81a3.26 3.26 0 0 1 1.45-.17c0 .46-.06.86-.2 1.18.49-.29.81-.93.83-1.77"/><path fill="#114371" d="M14.38 23.62l.04-.8a2.5 2.5 0 0 1-2.08.93c-1.08 0-1.82-.86-1.82-2.11 0-.64.16-1.2.44-1.64-.45.35-.71.83-.85 1.4l-.1.55-.01.29c0 1.25.75 2.11 1.83 2.11.91 0 1.58-.3 2.01-.93l-.04.8h1.71l.03-.21.03-.28.02-.11zM20.96 18c-.63 0-.96.21-.96.63v.02c.12-.04.28-.05.46-.05.38 0 .92.04 1.42.11l.1-.64a8.06 8.06 0 0 0-1.02-.07M18.58 24.42a13.5 13.5 0 0 1-1.6-.14l-.36-.07-.09-.03.16-1.05-.46-.13-.23 1.78.11.03.37.08.52.06c.47.04.83.07 1.08.07 1.43 0 2.33-.38 2.76-1.18-.51.39-1.25.58-2.26.58M19.01 20.56c-1.05-.52-1.5-1.19-1.5-2.16-.01-.5.08-.99.31-1.4-.42.35-.66.81-.77 1.34l-.05.58V19c0 .97.46 1.64 1.5 2.15.8.39.92.5.92.85v.01c.35-.07.51-.28.51-.61 0-.35-.12-.45-.92-.84M25.11 18l-.11.66h.73l.08-.66zM24.08 24.42c-1.02 0-1.58-.59-1.58-1.7 0-.21.03-.44.07-.68l.11-.76.1-.62.76-4.66h-.41l-.85 5.27-.05.26.02.28c0 .5-.08.92-.24 1.27l-.01.25c0 1.09.55 1.69 1.57 1.69.46 0 .88-.08 1.42-.25l.07-.47a4.3 4.3 0 0 1-.98.12M43.45 18.73a5.99 5.99 0 0 1 1.65-.22c.83 0 1.19.15 1.25.56l.44.04c.07-.25.09-.36.09-.49 0-.52-.36-.71-1.28-.71-.57 0-1.21.1-1.65.22l-.27.09-.17.03.2-1.25-.44.12-.27 1.73.18-.04zM46.08 21.05c-.2-.03-.29-.05-.45-.05-.92 0-1.46.28-1.63.81.26-.13.6-.19 1.03-.19.14 0 .23 0 .43.02-.01.46-.08.86-.21 1.18.48-.29.81-.93.83-1.77"/><path fill="#114371" d="M46.33 23.62l.04-.8c-.5.63-1.17.93-2.08.93-1.07 0-1.8-.86-1.8-2.11 0-.64.14-1.2.44-1.64-.47.37-.79.87-.93 1.48l.26-.13-.25 1.59a1.8 1.8 0 0 0 1.78 1.41c.91 0 1.58-.3 2.01-.93l-.03.8h1.7l.03-.21.03-.28.02-.11z"/><path fill="#fefefe" d="M24.99 23.76c-.54.18-.97.26-1.42.26-1.02 0-1.57-.59-1.57-1.7 0-.21.02-.44.06-.69l.12-.75.09-.62.86-5.26h1.97l-.22 1.15h1.01l-.28 1.88H24.6l-.53 3.21-.03.33c0 .4.21.57.68.57.22 0 .4-.03.53-.08z"/><path fill="#fefefe" d="M17.76 18.61c0 .97.45 1.64 1.5 2.15.8.39.92.5.92.85 0 .47-.35.7-1.14.7-.59 0-1.14-.09-1.76-.31L17 23.78l.09.03.36.06a13.7 13.7 0 0 0 1.61.14c2.09 0 3.05-.82 3.05-2.58 0-1.04-.4-1.67-1.39-2.14-.83-.39-.92-.48-.92-.84 0-.41.32-.63.96-.63.39 0 .92.05 1.42.13l.28-1.79c-.51-.1-1.29-.16-1.74-.16-2.21 0-2.98 1.19-2.96 2.61M42.64 14.48l-.33 2.07a3.68 3.68 0 0 0-1.77-.52c-1.48 0-2.51 1.47-2.51 3.55 0 1.45.69 2.32 1.84 2.32.49 0 1.03-.16 1.68-.49l-.34 2.15c-.74.21-1.21.3-1.76.3-2.12 0-3.45-1.58-3.45-4.1 0-3.4 1.83-5.76 4.45-5.76.34 0 .64.02.89.08l.82.22.48.18M56.65 20.06c0-.98-.37-1.5-1.05-1.5-.9 0-1.55 1.07-1.55 2.58 0 1.02.35 1.52 1.03 1.52.92 0 1.57-1.06 1.57-2.6zM58 24.49h-1.87l.09-.77c-.54.6-1.1.87-1.83.87-1.44 0-2.39-1.28-2.39-3.21 0-2.57 1.48-4.73 3.22-4.73.77 0 1.36.32 1.9 1.05l.43-2.7h1.96zM30.29 19.16l.02-.4c0-.62-.35-.99-.95-.99-.62 0-1.07.49-1.26 1.39zm1.11 4.58c-.68.22-1.34.32-2.03.32-2.22 0-3.37-1.18-3.37-3.45 0-2.66 1.47-4.61 3.46-4.61 1.63 0 2.67 1.1 2.67 2.81 0 .57-.07 1.12-.24 1.9h-3.94c-.02.12-.02.18-.02.25 0 .89.58 1.35 1.74 1.35.71 0 1.34-.15 2.05-.49z"/><path fill="#fefefe" d="M36.65 16.02a1.12 1.12 0 0 0-.2-.02c-.65 0-1.02.34-1.63 1.25l.18-1.16h-1.79L32 23.81h1.99c.7-4.72.89-5.54 1.84-5.54l.14.01c.18-.93.42-1.62.76-2.24zM52.65 16.02a1.23 1.23 0 0 0-.2-.02c-.66 0-1.02.34-1.63 1.25l.18-1.16h-1.79L48 23.81h1.98c.71-4.72.9-5.54 1.85-5.54l.13.01c.18-.93.42-1.62.76-2.24zM9.94 24.49H7.96l1.13-7.3-2.53 7.3H5.21l-.16-7.25-1.2 7.25H2L3.55 15h2.84l.09 5.87L8.4 15h3.07zM16.49 23.9h-1.64l.05-.81a2.5 2.5 0 0 1-2.09.93c-1.07 0-1.81-.85-1.81-2.1 0-1.88 1.28-2.98 3.48-2.98.23 0 .51.04.8.06.07-.25.09-.36.09-.49 0-.51-.35-.71-1.27-.71-.57 0-1.21.1-1.65.22l-.27.09-.18.04.27-1.74c.99-.3 1.64-.41 2.37-.41 1.7 0 2.6.79 2.6 2.26 0 .39-.02.68-.16 1.54l-.41 2.74-.07.49-.06.39-.02.27zm-1.88-3.49c-1.13 0-1.69.41-1.69 1.19 0 .47.28.8.71.8.8 0 1.39-.8 1.42-1.93-.21-.04-.3-.06-.44-.06zM47.51 23.69l.04-.27.05-.39.07-.49.41-2.74c.13-.86.16-1.15.16-1.54 0-1.47-.9-2.26-2.6-2.26a7.6 7.6 0 0 0-2.37.41L43 18.15l.17-.04.27-.09a6.86 6.86 0 0 1 1.65-.22c.93 0 1.28.2 1.28.71a2 2 0 0 1-.08.49c-.3-.02-.59-.06-.81-.06-2.2 0-3.48 1.1-3.48 2.98 0 1.25.73 2.1 1.81 2.1.91 0 1.57-.3 2.08-.93l-.05.81h1.65zm-3.6-2.09c0-.78.57-1.19 1.69-1.19.15 0 .24.02.45.06-.03 1.13-.62 1.93-1.43 1.93-.43 0-.71-.33-.71-.8z"/></svg>