<svg xmlns="http://www.w3.org/2000/svg" width="146" height="39" viewBox="0 0 146 39"><path fill="#253a80" d="M27.35 2.82C25.66.85 22.6 0 18.69 0H7.34c-.8 0-1.48.6-1.6 1.41L1.01 32.13a1 1 0 0 0 .96 1.16h7.01l1.76-11.44-.05.35c.12-.8.8-1.4 1.6-1.4h3.33c6.54 0 11.66-2.73 13.15-10.61l.12-.68c-.19-.1-.19-.1 0 0 .44-2.91 0-4.89-1.54-6.69"/><path fill="#169bd7" d="M109.34 20.41h-1.19l.83-5.39a.66.66 0 0 1 .65-.56h.54c1.42 0 2.75 0 3.44.82.41.5.54 1.23.38 2.24-.43 2.89-2.58 2.89-4.65 2.89zM105.25 10c-.53 0-.99.4-1.07.94l-3.17 20.6c-.06.41.24.78.64.78h4.02c.38 0 .7-.28.76-.66l.89-5.84a1.1 1.1 0 0 1 1.08-.95h2.48c5.16 0 8.14-2.56 8.92-7.63.35-2.22.01-3.97-1-5.19-1.12-1.34-3.09-2.05-5.71-2.05z"/><path fill="#253a80" d="M53.34 20.41h-1.19l.83-5.39a.66.66 0 0 1 .65-.56h.54c1.42 0 2.75 0 3.44.82.41.5.54 1.23.38 2.24-.43 2.89-2.58 2.89-4.65 2.89zM49.25 10c-.53 0-.99.4-1.07.94l-3.17 20.6c-.06.41.24.78.64.78h3.74c.54 0 .99-.4 1.08-.95l.85-5.55a1.1 1.1 0 0 1 1.08-.95h2.48c5.16 0 8.14-2.56 8.92-7.63.35-2.22.01-3.97-1-5.19-1.12-1.34-3.09-2.05-5.71-2.05zM70.28 28.52c-1.09 0-1.96-.36-2.52-1.04a3.36 3.36 0 0 1-.59-2.7 4.24 4.24 0 0 1 4.21-3.7c1.06 0 1.93.36 2.5 1.05.57.69.8 1.66.63 2.72a4.2 4.2 0 0 1-4.23 3.67zm5.71-11.16a.65.65 0 0 0-.64.57L75.18 19l-.26-.39C74.11 17.4 72.29 17 70.49 17c-4.15 0-7.69 3.22-8.38 7.74a7.38 7.38 0 0 0 1.4 5.91c1.14 1.38 2.78 1.95 4.72 1.95 3.35 0 5.2-2.2 5.2-2.2l-.17 1.07c-.06.41.24.78.65.78h3.37c.54 0 1-.4 1.08-.95l2.03-13.16a.67.67 0 0 0-.65-.78z"/><path fill="#169bd7" d="M126.28 28.52c-1.09 0-1.96-.36-2.52-1.04a3.33 3.33 0 0 1-.59-2.7 4.24 4.24 0 0 1 4.21-3.7c1.06 0 1.93.36 2.5 1.05.57.69.8 1.66.63 2.72a4.2 4.2 0 0 1-4.23 3.67zm5.71-11.16a.65.65 0 0 0-.64.57l-.17 1.07-.26-.39c-.81-1.21-2.63-1.61-4.43-1.61-4.15 0-7.69 3.22-8.38 7.74a7.38 7.38 0 0 0 1.4 5.91c1.14 1.38 2.78 1.95 4.72 1.95 3.35 0 5.2-2.2 5.2-2.2l-.17 1.07c-.06.41.24.78.65.78h3.37c.54 0 1-.4 1.08-.95l2.03-13.16a.67.67 0 0 0-.65-.78z"/><path fill="#253a80" d="M100.48 18h-3.77c-.36 0-.7.18-.9.49l-5.2 7.85-2.21-7.54c-.14-.48-.56-.8-1.04-.8h-3.71a.67.67 0 0 0-.61.89l4.15 12.49-3.91 5.65c-.3.45 0 1.06.54 1.06h3.76c.36 0 .69-.18.9-.48l12.54-18.56c.3-.44-.01-1.05-.54-1.05"/><path fill="#169bd7" d="M140.22 10.57l-3.21 20.97c-.06.41.24.78.64.78h3.24c.53 0 .99-.4 1.07-.95l3.17-20.6a.66.66 0 0 0-.64-.77h-3.62c-.32 0-.6.24-.65.57"/><path fill="#253a80" d="M27.35 2.82C25.66.85 22.6 0 18.69 0H7.34c-.8 0-1.48.6-1.6 1.41L1.01 32.13a1 1 0 0 0 .96 1.16h7.01l1.76-11.44-.05.35c.12-.8.8-1.4 1.6-1.4h3.33c6.54 0 11.66-2.73 13.15-10.61l.12-.68c-.19-.1-.19-.1 0 0 .44-2.91 0-4.89-1.54-6.69"/><path fill="#253a80" d="M12.63 9.55c.08-.48.38-.88.79-1.09.19-.09.4-.14.62-.14h8.89a17.94 17.94 0 0 1 3.69.37c.24.05.47.12.7.18l.34.11c.44.15.85.33 1.23.53.44-2.91 0-4.89-1.54-6.69C25.66.85 22.6 0 18.69 0H7.34c-.8 0-1.48.6-1.6 1.41L1.01 32.13a1 1 0 0 0 .96 1.16h7.01l1.76-11.45z"/><path fill="#169bd7" d="M29.4 10l-.11.68c-1.5 7.88-6.62 10.61-13.16 10.61H12.8c-.8 0-1.48.59-1.6 1.4L9.49 33.78l-.48 3.14a.87.87 0 0 0 .84 1.01h5.91c.7 0 1.29-.52 1.4-1.23l.06-.31 1.11-7.23.07-.4c.11-.71.71-1.23 1.41-1.23h.88c5.72 0 10.2-2.38 11.51-9.28.55-2.88.27-5.28-1.18-6.97A5.74 5.74 0 0 0 29.4 10"/><path fill="#222c64" d="M27.64 9.55a8.2 8.2 0 0 0-.71-.18A17.9 17.9 0 0 0 23.25 9h-8.9a1.43 1.43 0 0 0-1.4 1.23l-1.9 12.29-.05.36c.12-.81.8-1.4 1.6-1.4h3.33c6.54 0 11.66-2.73 13.16-10.61l.11-.68a8.6 8.6 0 0 0-1.23-.53l-.33-.11"/></svg>