<?xml version="1.0" encoding="UTF-8"?>
<svg width="78px" height="78px" viewBox="0 0 78 78" version="1.1" xmlns="http://www.w3.org/2000/svg" xmlns:xlink="http://www.w3.org/1999/xlink">
    <!-- Generator: Sketch 44 (41411) - http://www.bohemiancoding.com/sketch -->
    <title>Oval</title>
    <desc>Created with Sketch.</desc>
    <defs>
        <linearGradient x1="50%" y1="100%" x2="50%" y2="0%" id="linearGradient-1">
            <stop stop-color="#E35205" offset="0%"></stop>
            <stop stop-color="#FFCD00" offset="100%"></stop>
        </linearGradient>
        <linearGradient x1="50%" y1="0%" x2="50%" y2="100%" id="linearGradient-2">
            <stop stop-color="#FFCD00" offset="0%"></stop>
            <stop stop-color="#E35205" offset="100%"></stop>
        </linearGradient>
    </defs>
    <g id="Symbols" stroke="none" stroke-width="1" fill="none" fill-rule="evenodd">
        <g id="Oval">
            <circle stroke="url(#linearGradient-1)" stroke-width="5" cx="39" cy="39" r="36"></circle>
            <path d="M55.1703313,39.1796752 C54.1901629,39.906478 53.6800008,42.8567658 53.6800008,42.8567658 L54.7459567,43.6229791 L53.0849637,46.7015801 L51.0844711,45.7172343 L49.7228219,47.0416101 L48.1905102,46.2717308 L48.2361419,45.2048979 L47.3846548,46.2717308 L45.9801118,45.6741577 L45.8514305,44.4780951 L45.0026814,45.4633574 L43.6373816,44.9042783 L43.5981384,43.6697217 L42.9994508,44.4350185 L41.6414521,43.282949 L42.61797,41.5287238 L40.4075716,40.3326612 L39.8517778,41.1025406 L38.1515416,40.0787843 L38.4189432,39.3941416 L37.4698043,39.0082854 L36.9423022,40.2501741 L35.085093,39.3519815 L33.8804167,42.0153976 L34.6753205,42.5268175 L33.8950189,44.0949885 L25.7232984,40.164021 L26.3904335,38.7104154 L27.3423103,39.093522 L32.0232075,29.0511786 L31.1279141,28.5828354 L32.0232075,27 L40.1045773,30.9740441 L39.2987219,32.5138028 L38.5750035,32.0876196 L37.5090476,34.4788283 L39.0851657,35.3779375 L38.5330224,36.4878469 L39.6802027,37.0029329 L40.0087508,36.3192067 L41.7235891,37.2998864 L41.5556646,37.9414525 L43.6802754,38.9257983 L44.1940881,38.8827217 L44.022513,38.4097958 L43.2422113,37.7975584 L44.4897813,36.8883675 L49.9409413,36.430106 L54.3644759,31.7576713 L55.1703313,39.1796752 Z M37.809304,47.2139165 L37.809304,45.1196613 L24.7002362,45.1196613 L24.7002362,47.2139165 L23,47.2139165 L23,52 L39.5095402,52 L39.5095402,47.2139165 L37.809304,47.2139165 Z" id="auction" fill="url(#linearGradient-2)"></path>
        </g>
    </g>
</svg>