<svg xmlns="http://www.w3.org/2000/svg" width="74" height="24" viewBox="0 0 74 24"><path fill="#00579f" d="M29.71 0L26 22.34h5.94L35.65 0zM53.82.94A15.06 15.06 0 0 0 48.5 0c-5.87 0-10 3.03-10.04 7.37-.03 3.21 2.95 5 5.21 6.07 2.31 1.1 3.08 1.8 3.07 2.77-.01 1.5-1.84 2.19-3.55 2.19a12.1 12.1 0 0 1-5.59-1.18l-.77-.35-.83 5c1.39.62 3.95 1.16 6.62 1.19 6.24 0 10.29-2.99 10.34-7.63.02-2.54-1.56-4.48-4.99-6.07-2.07-1.04-3.35-1.72-3.33-2.77 0-.93 1.07-1.92 3.4-1.92 1.94-.03 3.35.4 4.44.85l.54.26.8-4.84M61.2 14.4l2.36-6.24c-.03.05.49-1.3.79-2.14l.4 1.93 1.38 6.45zM63.93 0c-1.42 0-2.48.4-3.11 1.85L52 22.33h6.24l1.25-3.36 7.6.01.73 3.35h5.51L68.52 0zM20.66 0l-5.82 15.24-.61-3.1C13.14 8.57 9.77 4.7 6 2.77l5.32 19.54 6.28-.01L26.95 0h-6.29"/><path fill="#faa519" d="M9.65 0H.08L0 .46c7.45 1.85 12.38 6.32 14.43 11.69L12.35 1.89C11.99.47 10.94.05 9.65 0"/></svg>